<?xml version="1.0" encoding="UTF-8"?>
<svg width="85px" height="87px" viewBox="0 0 85 87" version="1.1" xmlns="http://www.w3.org/2000/svg" xmlns:xlink="http://www.w3.org/1999/xlink">
    <!-- Generator: Sketch 54.1 (76490) - https://sketchapp.com -->
    <title>Group 9 Copy 2</title>
    <desc>Created with Sketch.</desc>
    <g id="Final-Hi-Fi" stroke="none" stroke-width="1" fill="none" fill-rule="evenodd">
        <g id="Desktop:-Hi-Fi-Home-Page" transform="translate(-528.000000, -2586.000000)" stroke="#BC9D5E" stroke-width="3.096">
            <g id="Group-4" transform="translate(529.000000, 2588.000000)">
                <g id="Group-9-Copy-2">
                    <path d="M81.672,27.8782744 C80.0567547,39.8532282 69.8330566,49.0938905 57.4495094,49.0938905 L48.7729811,49.0938905 L48.7729811,58.8938397 C48.7729811,71.9314386 38.2491321,82.4957466 25.265283,82.4957466 L24.1141887,82.4895323 C11.1984151,82.399425 0.770490566,71.856867 0.770490566,58.8845183 L0.770490566,46.546028 L19.188,46.546028 L19.188,58.5054461 C19.188,61.6094883 21.6913208,64.1262793 24.7794717,64.1262793 C27.870717,64.1262793 30.3771321,61.6094883 30.3771321,58.5054461 L30.3771321,30.9823167 L56.744,30.9823167 C60.2127547,30.9823167 63.0316981,28.1548107 63.0316981,24.6716962 C63.0316981,21.1854746 60.2127547,18.3610758 56.744,18.3610758 L29.4921509,18.3610758" id="Stroke-1"></path>
                    <path d="M72.1021358,24.5952603 C72.1021358,15.9915637 65.1584377,9.01601325 56.587117,9.01601325 L30.3780604,9.01601325 L30.3780604,0.00217283175 L57.4504377,0.00217283175 C69.8216075,0.00217283175 80.0514943,9.2335137 81.6729283,21.2240032" id="Stroke-3"></path>
                    <path d="M27.750966,73.0804625 C34.3078717,71.551745 39.193834,65.645054 39.193834,58.5980391 L39.193834,40.1726432 L56.587117,40.1726432 C65.1584377,40.1726432 72.1021358,33.1970928 72.1021358,24.5965032" id="Stroke-5"></path>
                    <path d="M9.5776,51.3577596 L9.5776,58.5974177 C9.5776,65.715897 14.5563925,71.6660881 21.212317,73.1264483" id="Stroke-7"></path>
                </g>
            </g>
        </g>
    </g>
</svg>