<?xml version="1.0" encoding="UTF-8"?>
<svg width="73px" height="75px" viewBox="0 0 73 75" version="1.1" xmlns="http://www.w3.org/2000/svg" xmlns:xlink="http://www.w3.org/1999/xlink">
    <!-- Generator: Sketch 54.1 (76490) - https://sketchapp.com -->
    <title>Group 9 Copy 2</title>
    <desc>Created with Sketch.</desc>
    <g id="Final-Hi-Fi" stroke="none" stroke-width="1" fill="none" fill-rule="evenodd">
        <g id="Desktop:-Canvas-Hi-Fi" transform="translate(-41.000000, -33.000000)" stroke="#FFFFFF" stroke-width="2.66666667">
            <g id="Group-9-Copy-2" transform="translate(42.000000, 35.000000)">
                <path d="M70.0506667,24.1780067 C68.6586667,34.4229535 59.848,42.3286286 49.176,42.3286286 L41.6986667,42.3286286 L41.6986667,50.712791 C41.6986667,61.8668639 32.6293333,70.9049591 21.44,70.9049591 L20.448,70.8996426 C9.31733333,70.8225529 0.330666667,61.8030655 0.330666667,50.7048162 L0.330666667,40.1488527 L16.2026667,40.1488527 L16.2026667,50.3805081 C16.2026667,53.0361132 18.36,55.1893064 21.0213333,55.1893064 C23.6853333,55.1893064 25.8453333,53.0361132 25.8453333,50.3805081 L25.8453333,26.8336118 L48.568,26.8336118 C51.5573333,26.8336118 53.9866667,24.4145922 53.9866667,21.434679 C53.9866667,18.4521076 51.5573333,16.0357462 48.568,16.0357462 L25.0826667,16.0357462" id="Stroke-1"></path>
                <path d="M61.8034667,21.3692857 C61.8034667,14.0085546 55.8194667,8.0407535 48.4328,8.0407535 L25.8461333,8.0407535 L25.8461333,0.329131653 L49.1768,0.329131653 C59.8381333,0.329131653 68.6541333,8.22683193 70.0514667,18.48507" id="Stroke-3"></path>
                <path d="M23.5821333,62.8498896 C29.2328,61.5420241 33.4434667,56.4886655 33.4434667,50.4597244 L33.4434667,34.696223 L48.4328,34.696223 C55.8194667,34.696223 61.8034667,28.7284218 61.8034667,21.370349" id="Stroke-5"></path>
                <path d="M7.92053333,44.2654392 L7.92053333,50.4591927 C7.92053333,56.5492739 12.2112,61.6398482 17.9472,62.8892319" id="Stroke-7"></path>
            </g>
        </g>
    </g>
</svg>