<?xml version="1.0" encoding="UTF-8"?>
<svg width="244px" height="453px" viewBox="0 0 244 453" version="1.1" xmlns="http://www.w3.org/2000/svg" xmlns:xlink="http://www.w3.org/1999/xlink">
    <!-- Generator: Sketch 55.1 (78136) - https://sketchapp.com -->
    <title>Group 23</title>
    <desc>Created with Sketch.</desc>
    <defs>
        <polygon id="path-1" points="0 0.269089322 77.7410699 0.269089322 77.7410699 150.86562 0 150.86562"></polygon>
        <polygon id="path-3" points="0 0.269089322 77.7410699 0.269089322 77.7410699 150.86562 0 150.86562"></polygon>
        <polygon id="path-5" points="0 0 61 0 61 61.1681159 0 61.1681159"></polygon>
        <polygon id="path-7" points="0 0 35.0425532 0 35.0425532 35.1391304 0 35.1391304"></polygon>
        <polygon id="path-9" points="0 -5.68434189e-14 71.3443193 -5.68434189e-14 71.3443193 72.0930984 0 72.0930984"></polygon>
    </defs>
    <g id="Final-Hi-Fi" stroke="none" stroke-width="1" fill="none" fill-rule="evenodd">
        <g id="Mobile:-Canvas-Hi-Fi-Copy" transform="translate(-38.000000, -2277.000000)">
            <g id="Group-23" transform="translate(38.000000, 2277.000000)">
                <path d="M22.5477822,449 L51.1009737,406.052174" id="Line-5-Copy" stroke="#76DFA3" stroke-width="5.20000029" stroke-linecap="square"></path>
                <path d="M87.4413992,449 L97.8243779,428.176812" id="Line-5-Copy-4" stroke="#76DFA3" stroke-width="5.20000029" stroke-linecap="square"></path>
                <path d="M143.24991,449 L153.632889,428.176812" id="Line-5-Copy-5" stroke="#76DFA3" stroke-width="5.20000029" stroke-linecap="square" transform="translate(148.441399, 438.588406) scale(-1, 1) translate(-148.441399, -438.588406) "></path>
                <path d="M191.271186,449 L219.824378,406.052174" id="Line-5-Copy-2" stroke="#76DFA3" stroke-width="5.20000029" stroke-linecap="square" transform="translate(205.547782, 427.526087) scale(-1, 1) translate(-205.547782, -427.526087) "></path>
                <g id="Group-13">
                    <g id="Group" transform="translate(0.483952, 40.344928)">
                        <g id="Group-3" transform="translate(0.000000, 83.901117)">
                            <mask id="mask-2" fill="white">
                                <use xlink:href="#path-1"></use>
                            </mask>
                            <g id="Clip-2"></g>
                            <path d="M-6.54389415e-05,75.5154408 C-6.54389415e-05,35.6251987 16.3976245,23.0047716 23.6446601,1.20648233 C39.270825,-0.5669602 56.7381144,0.602679947 64.0986866,1.25303024 C66.134492,7.3699544 68.8924162,12.7615894 71.8028132,18.2420286 C67.4308375,29.5911364 64.2249837,43.3646973 64.2315276,62.4671691 C64.2315276,93.5030736 70.8667091,114.876159 77.7410699,128.828649 C71.0155827,143.95309 63.3759135,150.302423 63.3759135,150.86562 L43.866929,150.86562 L24.3579446,150.86562 C24.3579446,149.860713 -6.54389415e-05,130.420522 -6.54389415e-05,75.5154408" id="Fill-1" fill="#A1A1A1" mask="url(#mask-2)"></path>
                        </g>
                        <path d="M61.0763454,73.6683087 C60.5701253,70.1179552 60.3296298,66.2716578 60.4207166,62.0337941 C55.3218185,61.1255415 43.4002525,59.7239412 26.645513,62.2036457 C26.7300469,66.462903 26.476773,70.3283249 25.9574468,73.8945615 C31.0727275,73.2987841 45.5453808,71.9620126 61.0763454,73.6683087" id="Fill-6" fill="#A1A1A1"></path>
                        <path d="M25.9858248,50.032776 C31.3525659,48.9419384 47.9869872,46.1321951 61.8381647,49.8671462 C62.7830809,42.8646512 64.4903352,34.9389358 67.1461374,25.8067732 C67.188728,25.6633379 67.9474343,23.2116861 67.9474343,20.5453782 C67.9474343,9.22292767 57.1872091,0.0414074405 43.8986233,0 C30.6067358,0.0414074405 19.8498123,9.22292767 19.8498123,20.5453782 C19.8498123,23.209036 20.605217,25.661019 20.6511091,25.8067732 C23.3300225,35.0108191 25.0405784,42.9941736 25.9858248,50.032776" id="Fill-10" fill="#A1A1A1"></path>
                    </g>
                    <g id="Group-Copy" transform="translate(204.249910, 158.126087) scale(-1, 1) translate(-204.249910, -158.126087) translate(165.313740, 40.344928)">
                        <g id="Group-3" transform="translate(0.000000, 83.901117)">
                            <mask id="mask-4" fill="white">
                                <use xlink:href="#path-3"></use>
                            </mask>
                            <g id="Clip-2"></g>
                            <path d="M-6.54389415e-05,75.5154408 C-6.54389415e-05,35.6251987 16.3976245,23.0047716 23.6446601,1.20648233 C39.270825,-0.5669602 56.7381144,0.602679947 64.0986866,1.25303024 C66.134492,7.3699544 68.8924162,12.7615894 71.8028132,18.2420286 C67.4308375,29.5911364 64.2249837,43.3646973 64.2315276,62.4671691 C64.2315276,93.5030736 70.8667091,114.876159 77.7410699,128.828649 C71.0155827,143.95309 63.3759135,150.302423 63.3759135,150.86562 L43.866929,150.86562 L24.3579446,150.86562 C24.3579446,149.860713 -6.54389415e-05,130.420522 -6.54389415e-05,75.5154408" id="Fill-1" fill="#A1A1A1" mask="url(#mask-4)"></path>
                        </g>
                        <path d="M61.0763454,73.6683087 C60.5701253,70.1179552 60.3296298,66.2716578 60.4207166,62.0337941 C55.3218185,61.1255415 43.4002525,59.7239412 26.645513,62.2036457 C26.7300469,66.462903 26.476773,70.3283249 25.9574468,73.8945615 C31.0727275,73.2987841 45.5453808,71.9620126 61.0763454,73.6683087" id="Fill-6" fill="#A1A1A1"></path>
                        <path d="M25.9858248,50.032776 C31.3525659,48.9419384 47.9869872,46.1321951 61.8381647,49.8671462 C62.7830809,42.8646512 64.4903352,34.9389358 67.1461374,25.8067732 C67.188728,25.6633379 67.9474343,23.2116861 67.9474343,20.5453782 C67.9474343,9.22292767 57.1872091,0.0414074405 43.8986233,0 C30.6067358,0.0414074405 19.8498123,9.22292767 19.8498123,20.5453782 C19.8498123,23.209036 20.605217,25.661019 20.6511091,25.8067732 C23.3300225,35.0108191 25.0405784,42.9941736 25.9858248,50.032776" id="Fill-10" fill="#A1A1A1"></path>
                    </g>
                    <g id="Group-15" transform="translate(70.569059, 0.000000)" fill="#A1A1A1">
                        <path d="M103.829787,185.913874 C103.829787,138.991163 84.4498509,124.125211 75.8637948,98.4974913 C67.1533031,97.7317036 46.4791705,96.3541471 27.9857965,98.4421771 C19.4093124,124.10335 0,138.955391 0,185.913874 C0,250.536813 28.82912,273.424325 28.82912,274.605797 L51.9163789,274.605797 L75.0039679,274.605797 C75.0039679,273.421344 103.829787,250.536813 103.829787,185.913874" id="Fill-4"></path>
                        <path d="M72.1260354,85.9814867 C71.5314498,81.6859634 71.2521847,77.0376305 71.3623174,71.9145416 C65.3751617,70.8143504 51.3869947,69.1191272 31.7197813,72.1200131 C31.8174586,77.2711664 31.5218047,81.9445568 30.911158,86.2594579 C36.9117526,85.5367996 53.9003808,83.917083 72.1260354,85.9814867" id="Fill-8"></path>
                        <path d="M30.9563829,58.5614668 C37.2354082,57.2834989 56.6944601,53.993566 72.9020502,58.3691272 C74.0080411,50.1735424 76.0007344,40.8949732 79.112589,30.2069049 C79.1649417,30.0393513 80.0519734,27.1671457 80.0519734,24.0477407 C80.0519734,10.7954745 67.4649476,0.049572068 51.9132473,0 C36.3648396,0.049572068 23.7778139,10.7954745 23.7778139,24.0477407 C23.7778139,27.1697895 24.6648456,30.0393513 24.7171982,30.2069049 C27.8514427,40.9779238 29.8540139,50.3192843 30.9563829,58.5614668" id="Fill-12"></path>
                    </g>
                    <g id="Group-3" transform="translate(91.335016, 145.762319)">
                        <mask id="mask-6" fill="white">
                            <use xlink:href="#path-5"></use>
                        </mask>
                        <g id="Clip-2"></g>
                        <path d="M30.5010004,0 C13.6568093,0 0,13.6927606 0,30.583835 C0,43.1071278 7.51014465,53.8655184 18.2568035,58.5957772 C18.1709885,56.4601497 18.2414635,53.896505 18.7877003,51.5729513 C19.3741768,49.0900057 22.7122906,34.9079234 22.7122906,34.9079234 C22.7122906,34.9079234 21.7378681,32.9553178 21.7378681,30.0688769 C21.7378681,25.5367989 24.3576705,22.1518963 27.620196,22.1518963 C30.3942875,22.1518963 31.734424,24.2413781 31.734424,26.7432724 C31.734424,29.5398744 29.9558752,33.7228507 29.0410342,37.5970752 C28.2769252,40.8413118 30.663293,43.4874389 33.8551212,43.4874389 C39.6340709,43.4874389 43.5259803,36.045067 43.5259803,27.227021 C43.5259803,20.5240934 39.023584,15.5069293 30.8347007,15.5069293 C21.5826898,15.5069293 15.8188577,22.425426 15.8188577,30.1533657 C15.8188577,32.8177727 16.6023085,34.6970357 17.8295071,36.1518483 C18.3939741,36.8201794 18.4722302,37.0892506 18.2679194,37.8565606 C18.1216338,38.4192249 17.7857104,39.7739439 17.6465389,40.3109717 C17.4435621,41.0854153 16.8177352,41.3622889 16.1194325,41.0762754 C11.8580295,39.3318824 9.87316906,34.6524506 9.87316906,29.3920747 C9.87316906,20.7042173 17.1803368,10.2869029 31.6717302,10.2869029 C43.3165562,10.2869029 50.9807676,18.7364528 50.9807676,27.8066276 C50.9807676,39.8040388 44.3289951,48.7672094 34.5236332,48.7672094 C31.2308724,48.7672094 28.1335297,46.9822439 27.072403,44.9551812 C27.072403,44.9551812 25.3016353,52.0016372 24.9265838,53.3623752 C24.2800813,55.7204825 23.0141992,58.0770292 21.8568086,59.9139364 C24.6002201,60.7260544 27.4976985,61.1681159 30.5010004,61.1681159 C47.3438576,61.1681159 61,47.4751325 61,30.583835 C61,13.6927606 47.3438576,0 30.5010004,0" id="Fill-1" fill="#FFFFFF" mask="url(#mask-6)"></path>
                    </g>
                    <g id="Group-3" transform="translate(184.781825, 178.298551)">
                        <mask id="mask-8" fill="white">
                            <use xlink:href="#path-7"></use>
                        </mask>
                        <g id="Clip-2"></g>
                        <path d="M26.0327904,27.0596042 C23.8605586,27.0596042 22.8220234,25.7661891 22.8220234,23.9978334 C22.8220234,23.493123 22.8847076,22.956155 23.0421327,22.4194539 L24.0810884,18.6945656 C24.2070173,18.284014 24.2384995,17.9055796 24.2384995,17.5581801 C24.2384995,16.3590503 23.5145204,15.6326542 22.349762,15.6326542 C20.8700411,15.6326542 19.8941901,16.6976791 19.3904464,18.749481 L17.3754996,26.8532954 L13.8500225,26.8532954 L14.4828489,24.3066783 C13.4464865,26.0138075 12.0071486,27.0710034 10.2317527,27.0710034 C8.09100314,27.0710034 7.08366991,25.8344011 7.08366991,23.9716196 C7.08366991,23.4988859 7.14677454,22.9193573 7.27256329,22.3826703 L7.27270346,22.3826703 L8.87796077,15.8058901 L6.39115897,15.8058901 L7.14677454,13.0106847 L13.1280898,13.0106847 L10.7668245,22.4027137 C10.6094133,23.0029603 10.5464489,23.5008115 10.5464489,23.8473958 C10.5464489,24.44805 10.8412969,24.6236051 11.3023307,24.7279261 C11.5830777,24.7909376 13.8201802,24.7468732 15.0380491,22.0320942 L16.5889625,15.8058901 L14.0704121,15.8058901 L14.8260137,13.0106847 L20.2088862,13.0106847 L19.5165155,16.1841839 C20.4607441,14.4161094 22.349762,12.7361497 24.2070173,12.7361497 C26.1902015,12.7361497 27.8273476,14.1529735 27.8273476,16.8677524 C27.8273476,17.5620173 27.7327607,18.3176492 27.481029,19.1697731 L26.4734295,22.7987036 C26.3792491,23.1783748 26.3160043,23.4936712 26.3160043,23.7778062 C26.3160043,24.4087926 26.5678761,24.7242295 27.0401236,24.7242295 C27.5123851,24.7242295 28.1105615,24.3762678 28.8031986,22.4517117 L30.1882064,22.9878645 C29.3696404,25.8606149 27.8901859,27.0596042 26.0327904,27.0596042 M11.7111932,6.82577609 C12.8760918,6.82577609 13.8519428,7.74117855 13.8519428,8.9403084 C13.8519428,10.1402535 12.8760918,11.0557824 11.7111932,11.0557824 C10.5463087,11.0557824 9.57072401,10.1401129 9.57072401,8.9403084 C9.57072401,7.74117855 10.5463087,6.82577609 11.7111932,6.82577609 M31.8658757,0 L3.17669155,0 C1.42223706,0 0,1.42615675 0,3.18544651 L0,31.9536839 C0,33.7129737 1.42223706,35.1391304 3.17669155,35.1391304 L31.8658757,35.1391304 C33.6203301,35.1391304 35.0425532,33.7129737 35.0425532,31.9536839 L35.0425532,3.18544651 C35.0425532,1.42615675 33.6203301,0 31.8658757,0" id="Fill-1" fill="#FFFFFF" mask="url(#mask-8)"></path>
                    </g>
                    <path d="M40.717995,213.437681 C29.9660684,213.437681 21.2499098,204.697501 21.2499098,193.915942 C21.2499098,183.134383 29.9660684,174.394203 40.717995,174.394203 C51.4699215,174.394203 60.1860801,183.134383 60.1860801,193.915942 C60.1860801,204.697501 51.4699215,213.437681 40.717995,213.437681 Z M51.2632077,202.885461 L51.2632077,184.948173 C51.2632077,184.24308 50.3777716,183.889873 49.8598284,184.388424 L41.1235801,192.797583 L32.3873317,184.388424 C31.8693885,183.889873 30.9839524,184.24308 30.9839524,184.948173 L30.9839524,202.885461 C30.9839524,203.320704 31.3541858,203.676812 31.8060844,203.676812 L50.4410757,203.676812 C50.8943445,203.676812 51.2632077,203.319121 51.2632077,202.885461 Z M49.6189438,186.858494 L49.6189438,200.974876 L42.2863487,193.916817 L49.6189438,186.858494 Z M48.4561751,202.09411 L33.790985,202.09411 L41.1235801,195.035787 L48.4561751,202.09411 Z M32.6282163,200.974876 L32.6282163,186.858494 L39.9608114,193.916817 L32.6282163,200.974876 Z" id="Combined-Shape" fill="#FFFFFF"></path>
                </g>
                <g id="Group-8" transform="translate(36.116857, 247.275362)">
                    <g id="Group-5-Copy" transform="translate(0.707521, 0.000000)">
                        <g id="Group-3" transform="translate(25.668578, 25.937315)">
                            <mask id="mask-10" fill="white">
                                <use xlink:href="#path-9"></use>
                            </mask>
                            <g id="Clip-2"></g>
                        </g>
                        <ellipse id="Oval-Copy" stroke="#76DFA3" stroke-width="5.5250003" fill="#76DFA3" cx="84.3617021" cy="85.2449275" rx="87.1242023" ry="88.0074277"></ellipse>
                    </g>
                    <g id="Group-3-Copy-3" transform="translate(68.196882, 55.962319)" fill="#FFFFFF">
                        <path d="M19.2734043,0 L23.9470038,0 C30.0749065,6.50679375e-16 35.0425532,4.96764666 35.0425532,11.0955494 L35.0425532,28.1191919 L19.2734043,28.1191919 L19.2734043,0 Z M15.7691489,0 L15.7691489,59.8666667 L11.0955494,59.8666667 C4.96764666,59.8666667 2.52680848e-15,54.89902 0,48.7711173 L0,11.0955494 C1.0259052e-15,4.96764666 4.96764666,2.9020343e-15 11.0955494,0 L15.7691489,0 Z M19.2734043,59.8666667 L19.2734043,31.7474747 L35.0425532,31.7474747 L35.0425532,48.7711173 C35.0425532,54.89902 30.0749065,59.8666667 23.9470038,59.8666667 L19.2734043,59.8666667 Z" id="Combined-Shape"></path>
                    </g>
                </g>
            </g>
        </g>
    </g>
</svg>