<?xml version="1.0" encoding="UTF-8"?>
<svg width="188px" height="348px" viewBox="0 0 188 348" version="1.1" xmlns="http://www.w3.org/2000/svg" xmlns:xlink="http://www.w3.org/1999/xlink">
    <!-- Generator: Sketch 55.1 (78136) - https://sketchapp.com -->
    <title>Group 23</title>
    <desc>Created with Sketch.</desc>
    <defs>
        <polygon id="path-1" points="0 0.206761283 59.8988571 0.206761283 59.8988571 115.921245 0 115.921245"></polygon>
        <polygon id="path-3" points="0 0.206761283 59.8988571 0.206761283 59.8988571 115.921245 0 115.921245"></polygon>
        <polygon id="path-5" points="0 0 47 0 47 47 0 47"></polygon>
        <polygon id="path-7" points="0 0 27 0 27 27 0 27"></polygon>
        <polygon id="path-9" points="0 -5.68434189e-14 54.9702133 -5.68434189e-14 54.9702133 55.3944742 0 55.3944742"></polygon>
    </defs>
    <g id="Final-Hi-Fi" stroke="none" stroke-width="1" fill="none" fill-rule="evenodd">
        <g id="Mobile:-Canvas-Hi-Fi" transform="translate(-66.000000, -2277.000000)">
            <g id="Group-23" transform="translate(66.000000, 2277.000000)">
                <path d="M17.3728814,345 L39.3728814,312" id="Line-5-Copy" stroke="#76DFA3" stroke-width="4" stroke-linecap="square"></path>
                <path d="M67.3728814,345 L75.3728814,329" id="Line-5-Copy-4" stroke="#76DFA3" stroke-width="4" stroke-linecap="square"></path>
                <path d="M110.372881,345 L118.372881,329" id="Line-5-Copy-5" stroke="#76DFA3" stroke-width="4" stroke-linecap="square" transform="translate(114.372881, 337.000000) scale(-1, 1) translate(-114.372881, -337.000000) "></path>
                <path d="M147.372881,345 L169.372881,312" id="Line-5-Copy-2" stroke="#76DFA3" stroke-width="4" stroke-linecap="square" transform="translate(158.372881, 328.500000) scale(-1, 1) translate(-158.372881, -328.500000) "></path>
                <g id="Group-13">
                    <g id="Group" transform="translate(0.372881, 31.000000)">
                        <g id="Group-3" transform="translate(0.000000, 64.467450)">
                            <mask id="mask-2" fill="white">
                                <use xlink:href="#path-1"></use>
                            </mask>
                            <g id="Clip-2"></g>
                            <path d="M-5.04201681e-05,58.0241138 C-5.04201681e-05,27.3734823 12.6342353,17.6762722 18.2180168,0.92702985 C30.2578487,-0.43563757 43.7162521,0.463083701 49.3875126,0.962796065 C50.956084,5.66288256 53.081042,9.80567561 55.323479,14.0167035 C51.9549076,22.7370647 49.4848235,33.3203131 49.4898655,47.9981589 C49.4898655,71.8453461 54.6022185,88.2678729 59.8988571,98.9886055 C54.7169244,110.609835 48.8306218,115.488499 48.8306218,115.921245 L33.7991092,115.921245 L18.7675966,115.921245 C18.7675966,115.1491 -5.04201681e-05,100.211759 -5.04201681e-05,58.0241138" id="Fill-1" fill="#A1A1A1" mask="url(#mask-2)"></path>
                        </g>
                        <path d="M47.0588235,56.6048252 C46.6687851,53.8768253 46.4834852,50.9214297 46.5536669,47.6651647 C42.6250077,46.9672869 33.4395388,45.8903334 20.5301494,47.7956743 C20.595282,51.0683776 20.4001365,54.0384679 20,56.778672 C23.9412818,56.320892 35.0923426,55.2937514 47.0588235,56.6048252" id="Fill-6" fill="#A1A1A1"></path>
                        <path d="M20.021865,38.4438925 C24.156895,37.605721 36.9735803,35.4467869 47.645799,38.3166268 C48.3738492,32.9360905 49.6892746,26.8461756 51.7355485,19.8292578 C51.7683642,19.7190458 52.3529412,17.8352599 52.3529412,15.7865378 C52.3529412,7.08665935 44.0622759,0.0318164075 33.8235294,0 C23.5822391,0.0318164075 15.2941176,7.08665935 15.2941176,15.7865378 C15.2941176,17.8332237 15.8761508,19.7172641 15.9115103,19.8292578 C17.9755911,26.9014089 19.2935604,33.0356123 20.021865,38.4438925" id="Fill-10" fill="#A1A1A1"></path>
                    </g>
                    <g id="Group-Copy" transform="translate(157.372881, 121.500000) scale(-1, 1) translate(-157.372881, -121.500000) translate(127.372881, 31.000000)">
                        <g id="Group-3" transform="translate(0.000000, 64.467450)">
                            <mask id="mask-4" fill="white">
                                <use xlink:href="#path-3"></use>
                            </mask>
                            <g id="Clip-2"></g>
                            <path d="M-5.04201681e-05,58.0241138 C-5.04201681e-05,27.3734823 12.6342353,17.6762722 18.2180168,0.92702985 C30.2578487,-0.43563757 43.7162521,0.463083701 49.3875126,0.962796065 C50.956084,5.66288256 53.081042,9.80567561 55.323479,14.0167035 C51.9549076,22.7370647 49.4848235,33.3203131 49.4898655,47.9981589 C49.4898655,71.8453461 54.6022185,88.2678729 59.8988571,98.9886055 C54.7169244,110.609835 48.8306218,115.488499 48.8306218,115.921245 L33.7991092,115.921245 L18.7675966,115.921245 C18.7675966,115.1491 -5.04201681e-05,100.211759 -5.04201681e-05,58.0241138" id="Fill-1" fill="#A1A1A1" mask="url(#mask-4)"></path>
                        </g>
                        <path d="M47.0588235,56.6048252 C46.6687851,53.8768253 46.4834852,50.9214297 46.5536669,47.6651647 C42.6250077,46.9672869 33.4395388,45.8903334 20.5301494,47.7956743 C20.595282,51.0683776 20.4001365,54.0384679 20,56.778672 C23.9412818,56.320892 35.0923426,55.2937514 47.0588235,56.6048252" id="Fill-6" fill="#A1A1A1"></path>
                        <path d="M20.021865,38.4438925 C24.156895,37.605721 36.9735803,35.4467869 47.645799,38.3166268 C48.3738492,32.9360905 49.6892746,26.8461756 51.7355485,19.8292578 C51.7683642,19.7190458 52.3529412,17.8352599 52.3529412,15.7865378 C52.3529412,7.08665935 44.0622759,0.0318164075 33.8235294,0 C23.5822391,0.0318164075 15.2941176,7.08665935 15.2941176,15.7865378 C15.2941176,17.8332237 15.8761508,19.7172641 15.9115103,19.8292578 C17.9755911,26.9014089 19.2935604,33.0356123 20.021865,38.4438925" id="Fill-10" fill="#A1A1A1"></path>
                    </g>
                    <g id="Group-15" transform="translate(54.372881, 0.000000)" fill="#A1A1A1">
                        <path d="M80,142.851418 C80,106.797219 65.0679179,95.3746054 58.452432,75.6829276 C51.7410696,75.0945162 35.8118199,74.0360373 21.5628268,75.6404256 C14.9547161,95.3578082 0,106.769733 0,142.851418 C0,192.506014 22.2126007,210.092187 22.2126007,211 L40.0011444,211 L57.7899425,211 C57.7899425,210.089896 80,192.506014 80,142.851418" id="Fill-4"></path>
                        <path d="M55.5725191,66.065953 C55.1143958,62.7653839 54.8992243,59.193725 54.9840806,55.2572758 C50.3710262,54.4119173 39.5932582,53.1093516 24.4398315,55.4151548 C24.515091,59.373168 24.2872921,62.9640804 23.8167939,66.2795389 C28.4402028,65.724267 41.5298016,64.4797186 55.5725191,66.065953" id="Fill-8"></path>
                        <path d="M23.8516392,44.9971182 C28.6895768,44.0151606 43.6826168,41.4872612 56.1704321,44.8493294 C57.022589,38.5520538 58.5579429,31.4226409 60.9556014,23.2102053 C60.9959387,23.0814615 61.6793893,20.8745329 61.6793893,18.4776627 C61.6793893,8.29496369 51.9811892,0.0380898964 39.9987315,0 C28.0188108,0.0380898964 18.3206107,8.29496369 18.3206107,18.4776627 C18.3206107,20.8765643 19.0040613,23.0814615 19.0443986,23.2102053 C21.4593083,31.486378 23.002273,38.6640381 23.8516392,44.9971182" id="Fill-12"></path>
                    </g>
                    <g id="Group-3" transform="translate(70.372881, 112.000000)">
                        <mask id="mask-6" fill="white">
                            <use xlink:href="#path-5"></use>
                        </mask>
                        <g id="Clip-2"></g>
                        <path d="M23.5007708,0 C10.5224596,0 0,10.5211635 0,23.4998287 C0,33.1224033 5.7865049,41.3888727 14.0667174,45.0234813 C14.0005977,43.3825204 14.0548981,41.412682 14.4757691,39.6273234 C14.9276444,37.7194921 17.4996337,26.8223465 17.4996337,26.8223465 C17.4996337,26.8223465 16.7488492,25.3220148 16.7488492,23.1041481 C16.7488492,19.6218166 18.7673855,17.0209448 21.2811346,17.0209448 C23.4185494,17.0209448 24.4511136,18.6264487 24.4511136,20.5488396 C24.4511136,22.6976763 23.0807563,25.9117673 22.3758788,28.8886212 C21.7871391,31.3814088 23.6258159,33.4146245 26.0850934,33.4146245 C30.5377267,33.4146245 33.536411,27.6960982 33.536411,20.9205395 C33.536411,15.7701831 30.0673516,11.9151238 23.7578841,11.9151238 C16.6292856,11.9151238 12.1883002,17.231118 12.1883002,23.1690672 C12.1883002,25.2163287 12.7919426,26.6603058 13.7374891,27.7781463 C14.1724063,28.2916746 14.232702,28.4984219 14.0752822,29.0880031 C13.9625703,29.5203398 13.7037441,30.5612709 13.5965136,30.9739092 C13.4401216,31.5689717 12.9579271,31.7817142 12.4198906,31.5619488 C9.13651455,30.2216023 7.60719583,26.6260478 7.60719583,22.5841108 C7.60719583,15.9085857 13.2373087,7.90419042 24.4028085,7.90419042 C33.3750515,7.90419042 39.2802636,14.3966063 39.2802636,21.3658943 C39.2802636,30.5843951 34.1551274,37.4714638 26.6001764,37.4714638 C24.0631312,37.4714638 21.676654,36.0999424 20.8590646,34.5423998 C20.8590646,34.5423998 19.4947026,39.9567146 19.2057285,41.0022705 C18.7076037,42.8141792 17.7322519,44.6248888 16.8404919,46.0363208 C18.954268,46.6603314 21.1867513,47 23.5007708,47 C36.4780542,47 47,36.4786652 47,23.4998287 C47,10.5211635 36.4780542,0 23.5007708,0" id="Fill-1" fill="#FFFFFF" mask="url(#mask-6)"></path>
                    </g>
                    <g id="Group-3" transform="translate(142.372881, 137.000000)">
                        <mask id="mask-8" fill="white">
                            <use xlink:href="#path-7"></use>
                        </mask>
                        <g id="Clip-2"></g>
                        <path d="M20.0580516,20.7919008 C18.3843648,20.7919008 17.584182,19.798074 17.584182,18.4393152 C17.584182,18.0515088 17.6324796,17.6389164 17.7537744,17.2265292 L18.5542812,14.3644212 C18.6513084,14.048964 18.6755652,13.7581848 18.6755652,13.491252 C18.6755652,12.5698716 18.1177452,12.0117276 17.2203084,12.0117276 C16.0801956,12.0117276 15.3283104,12.8300652 14.94018,14.4066168 L13.38768,20.6333784 L10.6713288,20.6333784 L11.1589164,18.6766236 C10.3604076,19.9883376 9.2514096,20.8006596 7.8834816,20.8006596 C6.2340516,20.8006596 5.4579096,19.8504864 5.4579096,18.4191732 C5.4579096,18.0559368 5.5065312,17.610642 5.6034504,17.1982656 L5.6035584,17.1982656 L6.840396,12.1448376 L4.9243356,12.1448376 L5.5065312,9.997074 L10.1150856,9.997074 L8.29575,17.2136664 C8.174466,17.6748804 8.1259524,18.0574164 8.1259524,18.3237228 C8.1259524,18.78525 8.3531304,18.920142 8.7083532,19.0002996 C8.9246664,19.048716 10.6483356,19.014858 11.5866936,16.928892 L12.7816596,12.1448376 L10.8411372,12.1448376 L11.423322,9.997074 L15.5707812,9.997074 L15.0373152,12.4355088 C15.7648356,11.076966 17.2203084,9.7861284 18.6513084,9.7861284 C20.1793356,9.7861284 21.4407432,10.8747792 21.4407432,12.9607452 C21.4407432,13.4942004 21.3678648,14.0748084 21.1739076,14.7295584 L20.3975604,17.5179348 C20.3249952,17.8096644 20.2762656,18.05193 20.2762656,18.270252 C20.2762656,18.7550856 20.4703308,18.9974592 20.8341936,18.9974592 C21.1980672,18.9974592 21.6589572,18.7300944 22.1926284,17.2513152 L23.2597656,17.6632812 C22.6290672,19.8706284 21.4891596,20.7919008 20.0580516,20.7919008 M9.0233784,5.24475 C9.9209232,5.24475 10.6728084,5.9481216 10.6728084,6.869502 C10.6728084,7.7915088 9.9209232,8.4949776 9.0233784,8.4949776 C8.1258444,8.4949776 7.3741644,7.7914008 7.3741644,6.869502 C7.3741644,5.9481216 8.1258444,5.24475 9.0233784,5.24475 M24.552396,0 L2.4476148,0 C1.095822,0 0,1.095822 0,2.4476148 L0,24.5523852 C0,25.904178 1.095822,27 2.4476148,27 L24.552396,27 C25.9041888,27 27,25.904178 27,24.5523852 L27,2.4476148 C27,1.095822 25.9041888,0 24.552396,0" id="Fill-1" fill="#FFFFFF" mask="url(#mask-8)"></path>
                    </g>
                    <path d="M31.3728814,164 C23.0886101,164 16.3728814,157.284271 16.3728814,149 C16.3728814,140.715729 23.0886101,134 31.3728814,134 C39.6571526,134 46.3728814,140.715729 46.3728814,149 C46.3728814,157.284271 39.6571526,164 31.3728814,164 Z M39.4978814,155.891946 L39.4978814,142.109398 C39.4978814,141.567622 38.8156601,141.296228 38.4165891,141.679302 L31.6853814,148.140682 L24.9541736,141.679302 C24.5551026,141.296228 23.8728814,141.567622 23.8728814,142.109398 L23.8728814,155.891946 C23.8728814,156.226376 24.1581432,156.5 24.5063273,156.5 L38.8644354,156.5 C39.2136753,156.5 39.4978814,156.22516 39.4978814,155.891946 Z M38.2309895,143.57724 L38.2309895,154.423902 L32.5812851,149.000672 L38.2309895,143.57724 Z M37.3350857,155.283893 L26.035677,155.283893 L31.6853814,149.86046 L37.3350857,155.283893 Z M25.1397732,154.423902 L25.1397732,143.57724 L30.7894776,149.000672 L25.1397732,154.423902 Z" id="Combined-Shape" fill="#FFFFFF"></path>
                </g>
                <g id="Group-8" transform="translate(27.827742, 190.000000)">
                    <g id="Group-5-Copy" transform="translate(0.545139, 0.000000)">
                        <g id="Group-3" transform="translate(19.777429, 19.929563)">
                            <mask id="mask-10" fill="white">
                                <use xlink:href="#path-9"></use>
                            </mask>
                            <g id="Clip-2"></g>
                        </g>
                        <ellipse id="Oval-Copy" stroke="#76DFA3" stroke-width="4.25" fill="#76DFA3" cx="65" cy="65.5" rx="67.125" ry="67.625"></ellipse>
                    </g>
                    <g id="Group-3-Copy-3" transform="translate(52.545139, 43.000000)" fill="#FFFFFF">
                        <path d="M14.85,0 L18.4649625,0 C23.1787336,9.10451145e-16 27,3.82126645 27,8.5350375 L27,21.6060606 L14.85,21.6060606 L14.85,0 Z M12.15,0 L12.15,46 L8.5350375,46 C3.82126645,46 5.77270463e-16,42.1787336 0,37.4649625 L0,8.5350375 C-5.77270463e-16,3.82126645 3.82126645,2.64226253e-15 8.5350375,0 L12.15,0 Z M14.85,46 L14.85,24.3939394 L27,24.3939394 L27,37.4649625 C27,42.1787336 23.1787336,46 18.4649625,46 L14.85,46 Z" id="Combined-Shape"></path>
                    </g>
                </g>
            </g>
        </g>
    </g>
</svg>