<?xml version="1.0" encoding="UTF-8"?>
<svg width="276px" height="618px" viewBox="0 0 276 618" version="1.1" xmlns="http://www.w3.org/2000/svg" xmlns:xlink="http://www.w3.org/1999/xlink">
    <!-- Generator: Sketch 55.1 (78136) - https://sketchapp.com -->
    <title>Group 29</title>
    <desc>Created with Sketch.</desc>
    <g id="Final-Hi-Fi" stroke="none" stroke-width="1" fill="none" fill-rule="evenodd">
        <g id="Mobile:-Canvas-Hi-Fi" transform="translate(-19.000000, -10428.000000)">
            <g id="Group-29" transform="translate(19.000000, 10428.000000)">
                <path d="M12.7570093,11.1714286 C12.4080979,11.1714286 12.1137084,11.2809513 11.8738318,11.5 C11.6339552,11.7190487 11.5140187,12.0038078 11.5140187,12.3542857 L11.5140187,33.6457143 C11.5140187,33.9961922 11.6339552,34.2809513 11.8738318,34.5 C12.1137084,34.7190487 12.4080979,34.8285714 12.7570093,34.8285714 L33.7570093,34.8285714 C34.1059207,34.8285714 34.4003103,34.9490464 34.6401869,35.19 C34.8800635,35.4309536 35,35.7266649 35,36.0771429 L35,44.7514286 C35,45.1019065 34.8800635,45.3976178 34.6401869,45.6385714 C34.4003103,45.879525 34.1059207,46 33.7570093,46 L7.65420561,46 C6.6074714,46 5.61526949,45.8028591 4.67757009,45.4085714 C3.7398707,45.0142837 2.92212187,44.4666702 2.22429907,43.7657143 C1.52647626,43.0647584 0.981310374,42.243338 0.588785047,41.3014286 C0.19625972,40.3595191 0,39.3628624 0,38.3114286 L0,7.68857143 C0,6.6371376 0.19625972,5.6404809 0.588785047,4.69857143 C0.981310374,3.75666196 1.52647626,2.94619387 2.22429907,2.26714286 C2.92212187,1.58809184 3.7398707,1.04047827 4.67757009,0.624285714 C5.61526949,0.208093157 6.6074714,0 7.65420561,0 L33.7570093,0 C34.1059207,0 34.4003103,0.120474986 34.6401869,0.361428571 C34.8800635,0.602382157 35,0.898093486 35,1.24857143 L35,9.92285714 C35,10.2733351 34.8800635,10.5690464 34.6401869,10.81 C34.4003103,11.0509536 34.1059207,11.1714286 33.7570093,11.1714286 L12.7570093,11.1714286 Z M76.2397959,0 C77.3010257,0 78.306968,0.208093157 79.2576531,0.624285714 C80.2083381,1.04047827 81.0263571,1.58809184 81.7117347,2.26714286 C82.3971123,2.94619387 82.9498278,3.75666196 83.369898,4.69857143 C83.7899681,5.6404809 84,6.6371376 84,7.68857143 L84,44.7514286 C84,45.1019065 83.8784026,45.3976178 83.6352041,45.6385714 C83.3920056,45.879525 83.0935392,46 82.7397959,46 L73.5204082,46 C73.1666649,46 72.8681985,45.879525 72.625,45.6385714 C72.3818015,45.3976178 72.2602041,45.1019065 72.2602041,44.7514286 L72.2602041,32.9885714 C72.2602041,32.6380935 72.149661,32.3423822 71.9285714,32.1014286 C71.7074819,31.860475 71.4200698,31.74 71.0663265,31.74 L57.9336735,31.74 C57.5799302,31.74 57.2814638,31.860475 57.0382653,32.1014286 C56.7950668,32.3423822 56.6734694,32.6380935 56.6734694,32.9885714 L56.6734694,44.7514286 C56.6734694,45.5838137 56.2534056,46 55.4132653,46 L46.2602041,46 C45.4200638,46 45,45.5838137 45,44.7514286 L45,7.68857143 C45,6.6371376 45.1989776,5.6404809 45.5969388,4.69857143 C45.9948999,3.75666196 46.5476155,2.94619387 47.255102,2.26714286 C47.9625886,1.58809184 48.7916619,1.04047827 49.7423469,0.624285714 C50.693032,0.208093157 51.6989743,0 52.7602041,0 L76.2397959,0 Z M72,23 L72,11 L57,11 L57,23 L72,23 Z M131.739796,0 C132.093539,0 132.392006,0.120474986 132.635204,0.361428571 C132.878403,0.602382157 133,0.898093486 133,1.24857143 L133,44.7514286 C133,45.1019065 132.878403,45.3976178 132.635204,45.6385714 C132.392006,45.879525 132.093539,46 131.739796,46 L122.188776,46 C121.835032,46 121.481294,45.9014296 121.127551,45.7042857 C120.773808,45.5071419 120.508504,45.2552396 120.331633,44.9485714 L105.673469,18.1371429 L105.673469,44.7514286 C105.673469,45.5838137 105.253406,46 104.413265,46 L95.2602041,46 C94.4200638,46 94,45.5838137 94,44.7514286 L94,1.24857143 C94,0.416186314 94.4200638,0 95.2602041,0 L104.678571,0 C105.032315,0 105.386053,0.0985704429 105.739796,0.295714286 C106.093539,0.492858129 106.358843,0.744760371 106.535714,1.05142857 L121.260204,27.9285714 L121.260204,1.24857143 C121.260204,0.898093486 121.381802,0.602382157 121.625,0.361428571 C121.868198,0.120474986 122.166665,0 122.520408,0 L131.739796,0 Z M183.092522,0 C183.445098,0 183.698508,0.109522714 183.85276,0.328571429 C184.007012,0.547620143 184.040065,0.8323792 183.951921,1.18285714 L170.201537,44.8171429 C170.113393,45.1676208 169.915072,45.4523799 169.606569,45.6714286 C169.298065,45.8904773 168.96753,46 168.614954,46 L156.318938,46 C155.966362,46 155.635827,45.8904773 155.327324,45.6714286 C155.01882,45.4523799 154.820499,45.1676208 154.732355,44.8171429 L141.048079,1.18285714 C140.959935,0.8323792 140.992988,0.547620143 141.14724,0.328571429 C141.301492,0.109522714 141.554902,0 141.907478,0 L151.82362,0 C152.176196,0 152.506731,0.109522714 152.815234,0.328571429 C153.123738,0.547620143 153.322059,0.8323792 153.410203,1.18285714 L162.466946,33.58 L171.589797,1.18285714 C171.677941,0.8323792 171.865244,0.547620143 172.151712,0.328571429 C172.43818,0.109522714 172.757697,0 173.110272,0 L183.092522,0 Z M223.239796,0 C224.301026,0 225.306968,0.208093157 226.257653,0.624285714 C227.208338,1.04047827 228.026357,1.58809184 228.711735,2.26714286 C229.397112,2.94619387 229.949828,3.75666196 230.369898,4.69857143 C230.789968,5.6404809 231,6.6371376 231,7.68857143 L231,44.7514286 C231,45.1019065 230.878403,45.3976178 230.635204,45.6385714 C230.392006,45.879525 230.093539,46 229.739796,46 L220.520408,46 C220.166665,46 219.868198,45.879525 219.625,45.6385714 C219.381802,45.3976178 219.260204,45.1019065 219.260204,44.7514286 L219.260204,32.9885714 C219.260204,32.6380935 219.149661,32.3423822 218.928571,32.1014286 C218.707482,31.860475 218.42007,31.74 218.066327,31.74 L204.933673,31.74 C204.57993,31.74 204.281464,31.860475 204.038265,32.1014286 C203.795067,32.3423822 203.673469,32.6380935 203.673469,32.9885714 L203.673469,44.7514286 C203.673469,45.5838137 203.253406,46 202.413265,46 L193.260204,46 C192.420064,46 192,45.5838137 192,44.7514286 L192,7.68857143 C192,6.6371376 192.198978,5.6404809 192.596939,4.69857143 C192.9949,3.75666196 193.547616,2.94619387 194.255102,2.26714286 C194.962589,1.58809184 195.791662,1.04047827 196.742347,0.624285714 C197.693032,0.208093157 198.698974,0 199.760204,0 L223.239796,0 Z M219,23 L219,11 L204,11 L204,23 L219,23 Z M268.345794,18.3342857 C269.392529,18.3342857 270.384731,18.5314266 271.32243,18.9257143 C272.260129,19.320002 273.066975,19.8676155 273.742991,20.5685714 C274.419006,21.2695273 274.964172,22.0799954 275.378505,23 C275.792837,23.9200046 276,24.905709 276,25.9571429 L276,38.3114286 C276,39.3628624 275.792837,40.3595191 275.378505,41.3014286 C274.964172,42.243338 274.419006,43.0647584 273.742991,43.7657143 C273.066975,44.4666702 272.260129,45.0142837 271.32243,45.4085714 C270.384731,45.8028591 269.392529,46 268.345794,46 L242.242991,46 C241.414326,46 241,45.5838137 241,44.7514286 L241,36.8 C241,36.4495221 241.119936,36.1538107 241.359813,35.9128571 C241.59969,35.6719036 241.894079,35.5514286 242.242991,35.5514286 L264.485981,35.5514286 C264.834893,35.5514286 265.129282,35.4419059 265.369159,35.2228571 C265.609035,35.0038084 265.728972,34.7190494 265.728972,34.3685714 L265.728972,28.9142857 C265.728972,28.5638078 265.609035,28.2680964 265.369159,28.0271429 C265.129282,27.7861893 264.834893,27.6657143 264.485981,27.6657143 L248.654206,27.6657143 C247.607471,27.6657143 246.615269,27.4685734 245.67757,27.0742857 C244.739871,26.679998 243.922122,26.1323845 243.224299,25.4314286 C242.526476,24.7304727 241.98131,23.9200046 241.588785,23 C241.19626,22.0799954 241,21.094291 241,20.0428571 L241,7.68857143 C241,6.6371376 241.19626,5.6404809 241.588785,4.69857143 C241.98131,3.75666196 242.526476,2.94619387 243.224299,2.26714286 C243.922122,1.58809184 244.739871,1.04047827 245.67757,0.624285714 C246.615269,0.208093157 247.607471,0 248.654206,0 L273.317757,0 C274.146422,0 274.560748,0.416186314 274.560748,1.24857143 L274.560748,9.33142857 C274.560748,9.68190651 274.440811,9.96666557 274.200935,10.1857143 C273.961058,10.404763 273.666668,10.5142857 273.317757,10.5142857 L252.448598,10.5142857 C252.099687,10.5142857 251.8162,10.6347607 251.598131,10.8757143 C251.380061,11.1166679 251.271028,11.4123792 251.271028,11.7628571 L251.271028,17.0857143 C251.271028,17.4361922 251.380061,17.7319036 251.598131,17.9728571 C251.8162,18.2138107 252.099687,18.3342857 252.448598,18.3342857 L268.345794,18.3342857 Z" id="canvas" fill="#E6E5E5" fill-rule="nonzero"></path>
                <text id="TYPEFACE:-OUTAGE" font-family="SpaceGrotesk-Regular, Space Grotesk" font-size="11.5" font-weight="normal" line-spacing="22.9999995" letter-spacing="1.211333" fill="#000000">
                    <tspan x="0" y="63">TYPEFACE: OUTAGE</tspan>
                </text>
                <path d="M14.592355,103 L17.3456295,103 C28.3587276,103 31.9379845,105.33711 31.9379845,116.74221 L31.9379845,128.614731 L22.7604027,128.614731 L22.7604027,116.181303 C22.7604027,111.320113 20.6495589,110.946176 17.3456295,110.946176 L14.592355,110.946176 C11.3802014,110.946176 9.17758175,111.320113 9.17758175,116.181303 L9.17758175,155.818697 C9.17758175,160.679887 11.3802014,161.053824 14.592355,161.053824 L17.3456295,161.053824 C20.6495589,161.053824 22.7604027,160.679887 22.7604027,155.818697 L22.7604027,141.515581 L31.9379845,141.515581 L31.9379845,155.25779 C31.9379845,166.569405 28.3587276,169 17.3456295,169 L14.592355,169 C3.6710327,169 0,166.569405 0,155.25779 L0,116.74221 C0,105.33711 3.6710327,103 14.592355,103 Z M53.4039952,115.722892 L55.0623137,115.722892 C65.564997,115.722892 67.8682171,118.988564 67.8682171,127.665921 L67.8682171,168.253561 C67.8682171,168.253561 58.0104353,169 52.7590936,169 L49.9952296,169 C43.2698271,169 39.124031,166.200852 39.124031,158.456544 L39.124031,145.767075 C39.124031,138.022767 43.2698271,135.316924 49.9952296,135.316924 L59.1159809,135.316924 L59.1159809,127.572616 C59.1159809,123.28059 57.3655337,123.187285 54.8780561,123.187285 L53.2197376,123.187285 C50.73226,123.187285 48.9818128,123.187285 48.9818128,127.292701 L48.9818128,131.678033 L40.8744782,131.678033 L40.8744782,127.665921 C40.8744782,118.988564 42.9013119,115.722892 53.4039952,115.722892 Z M47.1085271,145.780723 L47.1085271,156.952042 C47.1085271,159.558684 48.0902275,161.048193 50.6426484,161.048193 L59.0852713,161.048193 L59.0852713,141.963855 L50.6426484,141.963855 C48.1883975,141.963855 47.1085271,143.267176 47.1085271,145.780723 Z M94.3858118,169 L94.3858118,127.635203 C94.3858118,125.102664 93.1163524,123.508103 90.7587851,123.508103 L82.8700022,123.508103 L82.8700022,169 L74.255814,169 L74.255814,116.004285 C74.255814,116.004285 82.8700022,115.722892 89.4893258,115.722892 L92.3002714,115.722892 C98.919595,115.722892 103,118.443026 103,126.228237 L103,169 L94.3858118,169 Z M141.325581,115.722892 L131.0629,168.204819 L117.254929,168.204819 L106.992248,115.722892 L116.321958,115.722892 L123.879023,157.243992 L124.438806,157.243992 L131.995871,115.722892 L141.325581,115.722892 Z M158.799344,115.722892 L160.457662,115.722892 C170.960346,115.722892 173.263566,118.988564 173.263566,127.665921 L173.263566,168.253561 C173.263566,168.253561 163.405784,169 158.154442,169 L155.390578,169 C148.665176,169 144.51938,166.200852 144.51938,158.456544 L144.51938,145.767075 C144.51938,138.022767 148.665176,135.316924 155.390578,135.316924 L164.51133,135.316924 L164.51133,127.572616 C164.51133,123.28059 162.760883,123.187285 160.273405,123.187285 L158.615086,123.187285 C156.127609,123.187285 154.377162,123.187285 154.377162,127.292701 L154.377162,131.678033 L146.269827,131.678033 L146.269827,127.665921 C146.269827,118.988564 148.296661,115.722892 158.799344,115.722892 Z M152.503876,145.780723 L152.503876,156.952042 C152.503876,159.558684 153.485576,161.048193 156.037997,161.048193 L164.48062,161.048193 L164.48062,141.963855 L156.037997,141.963855 C153.583746,141.963855 152.503876,143.267176 152.503876,145.780723 Z M191.326152,115.722892 L192.260792,115.722892 C202.915688,115.722892 205.06536,118.994293 205.06536,127.686874 L205.06536,131.892961 L196.6536,131.892961 L196.6536,127.219531 C196.6536,123.387318 194.971248,123.20038 192.260792,123.20038 L191.326152,123.20038 C188.615696,123.20038 186.933344,123.387318 186.933344,127.219531 L186.933344,131.425618 C186.933344,134.416614 188.522232,134.790488 191.793472,136.285986 L198.05556,138.71617 C202.635296,140.492074 206,142.361446 206,149.091186 L206,156.662143 C206,165.354724 203.476472,169 192.728112,169 L191.326152,169 C180.577792,169 178.054264,165.728599 178.054264,157.036018 L178.054264,152.17565 L186.933344,152.17565 L186.933344,157.409892 C186.933344,161.242105 188.615696,161.522511 191.326152,161.522511 L192.728112,161.522511 C195.438568,161.522511 197.12092,160.868231 197.12092,157.036018 L197.12092,150.586684 C197.12092,146.754471 194.78432,146.193659 192.167328,145.072036 L185.998704,142.548383 C181.792824,140.865948 178.054264,139.557387 178.054264,132.266836 L178.054264,127.686874 C178.054264,118.994293 180.577792,115.722892 191.326152,115.722892 Z" id="Canvas-Copy-2" fill="#117C68"></path>
                <text id="TYPEFACE:-RBNo2.1-b" font-family="SpaceGrotesk-Regular, Space Grotesk" font-size="11.5" font-weight="normal" line-spacing="22.9999995" letter-spacing="1.211333" fill="#000000">
                    <tspan x="3" y="186">TYPEFACE: RBNo2.1 b MEDIUM</tspan>
                </text>
                <g id="Group-27" transform="translate(0.000000, 261.000000)">
                    <text id="PRIMARY-MARK-EVOLUTI" font-family="SpaceGrotesk-Regular, Space Grotesk" font-size="11.5" font-weight="normal" line-spacing="22.9999995" letter-spacing="1.211333" fill="#000000">
                        <tspan x="3" y="138">PRIMARY MARK EVOLUTION</tspan>
                    </text>
                    <path d="M263,56.9708333 L230.625,56.9708333 L230.625,0 L242.912002,0 C254.006297,-2.03798896e-15 263,8.99370324 263,20.0879984 L263,56.9708333 Z M263,64.0291667 L263,100.912002 C263,112.006297 254.006297,121 242.912002,121 L230.625,121 L230.625,64.0291667 L263,64.0291667 Z M223.625,1.42108547e-14 L223.625,121 L213.087998,121 C201.993703,121 193,112.006297 193,100.912002 L193,20.0879984 C193,8.99370324 201.993703,2.03798896e-15 213.087998,0 L223.625,0 Z" id="Combined-Shape-Copy-14" fill="#117C68"></path>
                    <path d="M121,54.45 L65.0375,54.45 L65.0375,0 L76.8064035,0 C101.213853,-4.48357572e-15 121,19.7861471 121,44.1935965 L121,54.45 Z M121,66.55 L121,76.8064035 C121,101.213853 101.213853,121 76.8064035,121 L65.0375,121 L65.0375,66.55 L121,66.55 Z M52.9375,0 L52.9375,121 L44.1935965,121 C19.7861471,121 1.71999052e-14,101.213853 0,76.8064035 L0,44.1935965 C-2.98905048e-15,19.7861471 19.7861471,1.86944304e-14 44.1935965,0 L52.9375,0 Z" id="Combined-Shape-Copy-8" fill="#D7D7D7"></path>
                    <path id="Line-Copy-23" d="M172.530932,55.0004432 L162.976249,49.8409143 L163.869529,48.1866922 L178.228327,55.9404432 L163.869529,63.6941943 L162.976249,62.0399721 L172.530932,56.8804432 L136.530057,56.8804432 L136.530057,55.0004432 L172.530932,55.0004432 Z" fill="#D7D7D7" fill-rule="nonzero"></path>
                </g>
                <text id="ALTERNATE-MARK-EVOLU" font-family="SpaceGrotesk-Regular, Space Grotesk" font-size="11.5" font-weight="normal" line-spacing="22.9999995" letter-spacing="1.211333" fill="#000000">
                    <tspan x="3" y="612">ALTERNATE MARK EVOLUTION</tspan>
                </text>
                <path id="Line-Copy-23" d="M147.530932,529.000443 L137.976249,523.840914 L138.869529,522.186692 L153.228327,529.940443 L138.869529,537.694194 L137.976249,536.039972 L147.530932,530.880443 L112.470057,530.880443 L111.530057,530.880443 L111.530057,529.000443 L147.530932,529.000443 Z" fill="#D7D7D7" fill-rule="nonzero"></path>
                <path d="M214.041667,532.661538 L244.904762,532.661538 L244.904762,539.815385 L214.041667,539.815385 L214.041667,590.846154 L206.452381,590.846154 L206.452381,481.153846 L214.041667,481.153846 L214.041667,532.661538 Z M189.119025,474 L231.880975,474 C243.54469,474 253,483.45531 253,495.119025 L253,576.880975 C253,588.54469 243.54469,598 231.880975,598 L189.119025,598 C177.45531,598 168,588.54469 168,576.880975 L168,495.119025 C168,483.45531 177.45531,474 189.119025,474 Z M191.428555,481.153846 C182.680768,481.153846 175.589286,488.245328 175.589286,496.993115 L175.589286,575.006885 C175.589286,583.754672 182.680768,590.846154 191.428555,590.846154 L229.065493,590.846154 C237.81328,590.846154 244.904762,583.754672 244.904762,575.006885 L244.904762,496.993115 C244.904762,488.245328 237.81328,481.153846 229.065493,481.153846 L191.428555,481.153846 Z" id="Combined-Shape-Copy-2" fill="#117C68"></path>
                <g id="Group-5" transform="translate(3.000000, 474.000000)">
                    <rect id="Rectangle-10" fill="#D7D7D7" x="0" y="0" width="93" height="124" rx="35.5046389"></rect>
                    <path d="M77.2589713,59.4344636 L49.1142344,59.4344636 L49.1142344,15.8297872 L55.9943422,15.8297872 C67.7384726,15.8297872 77.2589713,25.350286 77.2589713,37.0944163 L77.2589713,59.4344636 Z M77.2589713,64.54443 L77.2589713,86.8844773 C77.2589713,98.6286076 67.7384726,108.149106 55.9943422,108.149106 L49.1142344,108.149106 L49.1142344,64.54443 L77.2589713,64.54443 Z M43.9970096,15.8297872 L43.9970096,108.149106 L37.1169018,108.149106 C25.3727715,108.149106 15.8522727,98.6286076 15.8522727,86.8844773 L15.8522727,37.0944163 C15.8522727,25.350286 25.3727715,15.8297872 37.1169018,15.8297872 L43.9970096,15.8297872 Z" id="Combined-Shape-Copy-14" fill="#FFFFFF"></path>
                </g>
            </g>
        </g>
    </g>
</svg>