<?xml version="1.0" encoding="UTF-8"?>
<svg width="1149px" height="387px" viewBox="0 0 1149 387" version="1.1" xmlns="http://www.w3.org/2000/svg" xmlns:xlink="http://www.w3.org/1999/xlink">
    <!-- Generator: Sketch 54.1 (76490) - https://sketchapp.com -->
    <title>Group 21</title>
    <desc>Created with Sketch.</desc>
    <defs>
        <polygon id="path-1" points="0 -5.68434189e-14 106.022496 -5.68434189e-14 106.022496 106.136285 0 106.136285"></polygon>
        <polygon id="path-3" points="0 0 78.0795781 0 78.0795781 78.1613833 0 78.1613833"></polygon>
        <polygon id="path-5" points="0 0 83.57814 0 83.57814 83.6657061 0 83.6657061"></polygon>
    </defs>
    <g id="Final-Hi-Fi" stroke="none" stroke-width="1" fill="none" fill-rule="evenodd">
        <g id="Desktop:-Canvas-Hi-Fi" transform="translate(-141.000000, -2113.000000)">
            <g id="Group-52" transform="translate(0.000000, 1711.000000)">
                <g id="Group-21" transform="translate(141.000000, 402.000000)">
                    <g id="Group-16" transform="translate(608.140940, 131.002882)">
                        <g id="Group-8">
                            <g id="Group-5-Copy">
                                <g id="Group-3" transform="translate(38.145247, 38.185212)">
                                    <mask id="mask-2" fill="white">
                                        <use xlink:href="#path-1"></use>
                                    </mask>
                                    <g id="Clip-2"></g>
                                </g>
                                <ellipse id="Oval-Copy" stroke="#76DFA3" stroke-width="4.6750001" fill="#76DFA3" cx="125.36721" cy="125.498559" rx="127.70471" ry="127.836059"></ellipse>
                            </g>
                            <g id="Group-3-Copy-3" transform="translate(99.497786, 82.337679)" fill="#FFFFFF">
                                <path d="M29.1860171,0 L43.6769442,0 C48.8620925,3.65284051e-15 53.0654857,4.20339319 53.0654857,9.38854145 L53.0654857,41.1688395 L29.1860171,41.1688395 L29.1860171,0 Z M23.8794686,0 L23.8794686,87.6497873 L9.38854145,87.6497873 C4.20339319,87.6497873 7.54300271e-15,83.4463941 0,78.2612458 L0,9.38854145 C-6.34997523e-16,4.20339319 4.20339319,-8.23860555e-16 9.38854145,-1.77635684e-15 L23.8794686,0 Z M29.1860171,87.6497873 L29.1860171,46.4809478 L53.0654857,46.4809478 L53.0654857,78.2612458 C53.0654857,83.4463941 48.8620925,87.6497873 43.6769442,87.6497873 L29.1860171,87.6497873 Z" id="Combined-Shape"></path>
                            </g>
                        </g>
                        <g id="Group-10" transform="translate(294.722915, 86.968300)" stroke="#76DFA3" stroke-linecap="square" stroke-width="4.4000001">
                            <path d="M0.946264131,40.9981105 L243.788689,40.9981105" id="Line-5"></path>
                            <path d="M0.946871909,2.68802406 L206.58082,2.68802406" id="Line-5-Copy"></path>
                            <path d="M0.946871909,77.9871595 L206.58082,77.9871595" id="Line-5-Copy-2"></path>
                        </g>
                    </g>
                    <g id="Group-17">
                        <g id="Group-15" fill="#A1A1A1">
                            <path d="M144.06232,258.621998 C144.06232,193.34852 117.17294,172.668717 105.259912,137.018381 C93.1742317,135.953105 64.4891733,134.036807 38.8298858,136.941434 C26.9301388,172.638307 0,193.298758 0,258.621998 C0,348.517998 39.9999849,380.356471 39.9999849,382 L72.033221,382 L104.066915,382 C104.066915,380.352324 144.06232,348.517998 144.06232,258.621998" id="Fill-4"></path>
                            <path d="M100.073826,119.607555 C99.2488466,113.632117 98.8613703,107.165891 99.0141779,100.039239 C90.7070863,98.5087793 71.298708,96.1505797 44.0107354,100.325067 C44.1462612,107.490759 43.7360457,113.991842 42.8887824,119.994236 C51.2145201,118.988957 74.7859947,116.735794 100.073826,119.607555" id="Fill-8"></path>
                            <path d="M42.9515311,81.4639769 C51.6635875,79.686215 78.6627391,75.1096387 101.150535,81.1964162 C102.685081,69.7956613 105.449914,56.888383 109.767567,42.0203717 C109.840206,41.7872904 111.070949,37.7918083 111.070949,33.4524509 C111.070949,15.0174224 93.606634,0.0689589593 72.0288759,0 C50.4556863,0.0689589593 32.991371,15.0174224 32.991371,33.4524509 C32.991371,37.7954861 34.2221146,41.7872904 34.2947532,42.0203717 C38.6434718,57.0037744 41.4220102,69.9984007 42.9515311,81.4639769" id="Fill-12"></path>
                        </g>
                        <path d="M72.5810163,295.0317 C49.5015502,295.0317 30.7919463,276.302494 30.7919463,253.198847 C30.7919463,230.0952 49.5015502,211.365994 72.5810163,211.365994 C95.6604824,211.365994 114.370086,230.0952 114.370086,253.198847 C114.370086,276.302494 95.6604824,295.0317 72.5810163,295.0317 Z M95.674976,274.442726 L95.674976,231.959113 C95.674976,230.289133 93.6583116,229.45258 92.4786472,230.633375 L72.5810163,250.550067 L52.6833854,230.633375 C51.503721,229.45258 49.4870566,230.289133 49.4870566,231.959113 L49.4870566,274.442726 C49.4870566,275.473578 50.3302982,276.317003 51.3595398,276.317003 L93.8024928,276.317003 C94.8348552,276.317003 95.674976,275.46983 95.674976,274.442726 Z M91.9300096,236.483618 L91.9300096,269.917596 L75.2293317,253.20092 L91.9300096,236.483618 Z M89.2816942,272.568449 L55.8803384,272.568449 L72.5810163,255.851147 L89.2816942,272.568449 Z M53.232023,269.917596 L53.232023,236.483618 L69.9327009,253.20092 L53.232023,269.917596 Z" id="Combined-Shape" fill="#FFFFFF"></path>
                    </g>
                    <g id="Group-13" transform="translate(168.255992, 0.000000)">
                        <g id="Group-15-Copy" fill="#A1A1A1">
                            <path d="M144.06232,258.621998 C144.06232,193.34852 117.17294,172.668717 105.259912,137.018381 C93.1742317,135.953105 64.4891733,134.036807 38.8298858,136.941434 C26.9301388,172.638307 0,193.298758 0,258.621998 C0,348.517998 39.9999849,380.356471 39.9999849,382 L72.033221,382 L104.066915,382 C104.066915,380.352324 144.06232,348.517998 144.06232,258.621998" id="Fill-4"></path>
                            <path d="M100.073826,119.607555 C99.2488466,113.632117 98.8613703,107.165891 99.0141779,100.039239 C90.7070863,98.5087793 71.298708,96.1505797 44.0107354,100.325067 C44.1462612,107.490759 43.7360457,113.991842 42.8887824,119.994236 C51.2145201,118.988957 74.7859947,116.735794 100.073826,119.607555" id="Fill-8"></path>
                            <path d="M42.9515311,81.4639769 C51.6635875,79.686215 78.6627391,75.1096387 101.150535,81.1964162 C102.685081,69.7956613 105.449914,56.888383 109.767567,42.0203717 C109.840206,41.7872904 111.070949,37.7918083 111.070949,33.4524509 C111.070949,15.0174224 93.606634,0.0689589593 72.0288759,0 C50.4556863,0.0689589593 32.991371,15.0174224 32.991371,33.4524509 C32.991371,37.7954861 34.2221146,41.7872904 34.2947532,42.0203717 C38.6434718,57.0037744 41.4220102,69.9984007 42.9515311,81.4639769" id="Fill-12"></path>
                        </g>
                        <g id="Group-3" transform="translate(32.991371, 211.365994)">
                            <mask id="mask-4" fill="white">
                                <use xlink:href="#path-3"></use>
                            </mask>
                            <g id="Clip-2"></g>
                            <path d="M58.0046003,60.1897677 C53.1645721,60.1897677 50.8505745,57.3127722 50.8505745,53.3793475 C50.8505745,52.2566999 50.9902433,51.0623002 51.341008,49.8684945 L53.6559425,41.5830752 C53.9365293,40.6698689 54.006676,39.8281021 54.006676,39.0553674 C54.006676,36.3880945 52.3935519,34.7723424 49.7983117,34.7723424 C46.5012922,34.7723424 44.3269633,37.1413201 43.2045538,41.7052258 L38.714978,59.7308666 L30.8597352,59.7308666 L32.2697587,54.0663235 C29.960602,57.8635599 26.7535614,60.2151232 22.7977377,60.2151232 C18.0278563,60.2151232 15.7833807,57.4644991 15.7833807,53.3210391 C15.7833807,52.2695184 15.9239864,50.9804496 16.2042609,49.7866752 L16.2045732,49.7866752 L19.781305,35.157678 L14.2403721,35.157678 L15.9239864,28.9401901 L29.251171,28.9401901 L23.9899504,49.8312584 C23.6392169,51.1664112 23.4989235,52.2738016 23.4989235,53.044723 C23.4989235,54.3807824 24.1558851,54.7712767 25.1831313,55.0033222 C25.8086736,55.1434812 30.7932426,55.0454668 33.5068203,49.0068747 L36.9624663,35.157678 L31.3507933,35.157678 L33.0343764,28.9401901 L45.0281492,28.9401901 L43.4854529,35.9991322 C45.5893227,32.0663328 49.7983117,28.3295308 53.9365293,28.3295308 C58.3553337,28.3295308 62.0031179,31.4810291 62.0031179,37.5196212 C62.0031179,39.0639026 61.7923655,40.744685 61.2314731,42.6400985 L58.9864041,50.7120747 C58.7765574,51.5565928 58.6356394,52.2579193 58.6356394,52.8899322 C58.6356394,54.2934605 59.1968442,54.9950996 60.2490758,54.9950996 C61.3013387,54.9950996 62.6341571,54.2211143 64.1774468,49.9402466 L67.2634328,51.132833 C65.4395563,57.5228075 62.1431302,60.1897677 58.0046003,60.1897677 M26.0941326,15.1828487 C28.6896851,15.1828487 30.864014,17.2190153 30.864014,19.8862881 C30.864014,22.5553743 28.6896851,24.5918222 26.0941326,24.5918222 C23.4986112,24.5918222 21.3248758,22.5550616 21.3248758,19.8862881 C21.3248758,17.2190153 23.4986112,15.1828487 26.0941326,15.1828487 M71.0015082,0 L7.07810115,0 C3.16893776,0 0,3.1722579 0,7.08551698 L0,71.0758663 C0,74.9891254 3.16893776,78.1613833 7.07810115,78.1613833 L71.0015082,78.1613833 C74.9106716,78.1613833 78.0795781,74.9891254 78.0795781,71.0758663 L78.0795781,7.08551698 C78.0795781,3.1722579 74.9106716,0 71.0015082,0" id="Fill-1" fill="#FFFFFF" mask="url(#mask-4)"></path>
                        </g>
                    </g>
                    <g id="Group-18" transform="translate(339.811122, 0.000000)">
                        <g id="Group-15-Copy-2" fill="#A1A1A1">
                            <path d="M144.06232,258.621998 C144.06232,193.34852 117.17294,172.668717 105.259912,137.018381 C93.1742317,135.953105 64.4891733,134.036807 38.8298858,136.941434 C26.9301388,172.638307 0,193.298758 0,258.621998 C0,348.517998 39.9999849,380.356471 39.9999849,382 L72.033221,382 L104.066915,382 C104.066915,380.352324 144.06232,348.517998 144.06232,258.621998" id="Fill-4"></path>
                            <path d="M100.073826,119.607555 C99.2488466,113.632117 98.8613703,107.165891 99.0141779,100.039239 C90.7070863,98.5087793 71.298708,96.1505797 44.0107354,100.325067 C44.1462612,107.490759 43.7360457,113.991842 42.8887824,119.994236 C51.2145201,118.988957 74.7859947,116.735794 100.073826,119.607555" id="Fill-8"></path>
                            <path d="M42.9515311,81.4639769 C51.6635875,79.686215 78.6627391,75.1096387 101.150535,81.1964162 C102.685081,69.7956613 105.449914,56.888383 109.767567,42.0203717 C109.840206,41.7872904 111.070949,37.7918083 111.070949,33.4524509 C111.070949,15.0174224 93.606634,0.0689589593 72.0288759,0 C50.4556863,0.0689589593 32.991371,15.0174224 32.991371,33.4524509 C32.991371,37.7954861 34.2221146,41.7872904 34.2947532,42.0203717 C38.6434718,57.0037744 41.4220102,69.9984007 42.9515311,81.4639769" id="Fill-12"></path>
                        </g>
                        <g id="Group-3" transform="translate(30.791946, 206.962536)">
                            <mask id="mask-6" fill="white">
                                <use xlink:href="#path-5"></use>
                            </mask>
                            <g id="Clip-2"></g>
                            <path d="M41.7904407,0 C18.7116512,0 0,18.7289483 0,41.8325481 C0,58.9618991 10.2899003,73.6772182 25.014257,80.1472629 C24.896679,77.2261531 24.9932392,73.7196018 25.7416565,70.5414465 C26.5452075,67.1452753 31.1188689,47.7470331 31.1188689,47.7470331 C31.1188689,47.7470331 29.7837801,45.0762606 29.7837801,41.1281887 C29.7837801,34.9292157 33.373259,30.2993482 37.8433542,30.2993482 C41.6442298,30.2993482 43.4803956,33.15734 43.4803956,36.5794292 C43.4803956,40.4046194 41.0435464,46.1260916 39.7900921,51.425253 C38.7431608,55.8627175 42.0128032,59.4820884 46.3860337,59.4820884 C54.303966,59.4820884 59.6364012,49.3024173 59.6364012,37.2411002 C59.6364012,28.0728405 53.4675175,21.210367 42.2476545,21.210367 C29.571165,21.210367 21.673946,30.673482 21.673946,41.2437524 C21.673946,44.8881265 22.7473781,47.4585811 24.428804,49.4484728 C25.202199,50.3626155 25.3094204,50.7306509 25.0294873,51.780177 C24.8290565,52.5497888 24.3687966,54.4027725 24.1781131,55.1373188 C23.9000077,56.1966022 23.0425414,56.5753098 22.0857735,56.1841006 C16.2470828,53.7981211 13.5275591,47.3975976 13.5275591,40.2024591 C13.5275591,28.3192138 23.539354,14.0704186 43.3944967,14.0704186 C59.3494622,14.0704186 69.8504546,25.627707 69.8504546,38.0338858 C69.8504546,54.4439364 60.7366386,66.7037547 47.3019844,66.7037547 C42.7904627,66.7037547 38.5466898,64.2622802 37.0928047,61.4896653 C37.0928047,61.4896653 34.6666167,71.1278029 34.1527461,72.9890194 C33.2669514,76.2144368 31.532524,79.4377198 29.9467444,81.9502401 C33.7055843,83.0610546 37.6755162,83.6657061 41.7904407,83.6657061 C64.8674026,83.6657061 83.57814,64.9364528 83.57814,41.8325481 C83.57814,18.7289483 64.8674026,0 41.7904407,0" id="Fill-1" fill="#FFFFFF" mask="url(#mask-6)"></path>
                        </g>
                    </g>
                </g>
            </g>
        </g>
    </g>
</svg>