<?xml version="1.0" encoding="UTF-8"?>
<svg width="762px" height="283px" viewBox="0 0 762 283" version="1.1" xmlns="http://www.w3.org/2000/svg" xmlns:xlink="http://www.w3.org/1999/xlink">
    <!-- Generator: Sketch 55.1 (78136) - https://sketchapp.com -->
    <title>Group 21@1x</title>
    <desc>Created with Sketch.</desc>
    <defs>
        <polygon id="path-1" points="0 -5.68434189e-14 69.4358836 -5.68434189e-14 69.4358836 69.770865 0 69.770865"></polygon>
        <polygon id="path-3" points="0 0 56.8885815 0 56.8885815 56.9374045 0 56.9374045"></polygon>
        <polygon id="path-5" points="0 0 60.8948197 0 60.8948197 60.9470809 0 60.9470809"></polygon>
    </defs>
    <g id="Final-Hi-Fi" stroke="none" stroke-width="1" fill="none" fill-rule="evenodd">
        <g id="Tablet" transform="translate(-30.000000, -8096.000000)">
            <g id="Group-21" transform="translate(30.000000, 8096.000000)">
                <g id="Group-16" transform="translate(407.000000, 114.000000)">
                    <g id="Group-8">
                        <g id="Group-5-Copy">
                            <g id="Group-3" transform="translate(24.981952, 25.101833)">
                                <mask id="mask-2" fill="white">
                                    <use xlink:href="#path-1"></use>
                                </mask>
                                <g id="Clip-2"></g>
                            </g>
                            <ellipse id="Oval-Copy" stroke="#76DFA3" stroke-width="3.06557376" fill="#76DFA3" cx="82.1050559" cy="82.4990528" rx="83.6378428" ry="84.0318397"></ellipse>
                        </g>
                        <g id="Group-3-Copy-3" transform="translate(65.162743, 54.126363)" fill="#FFFFFF">
                            <path d="M19.1144045,0 L28.5970423,0 C31.9971395,2.63590709e-16 34.7534628,2.75632333 34.7534628,6.15642046 L34.7534628,27.0631813 L19.1144045,27.0631813 L19.1144045,0 Z M15.6390583,0 L15.6390583,57.6183861 L6.15642046,57.6183861 C2.75632333,57.6183861 1.30457023e-15,54.8620627 0,51.4619656 L0,6.15642046 C-4.16391807e-16,2.75632333 2.75632333,-2.92812597e-15 6.15642046,0 L15.6390583,0 Z M19.1144045,57.6183861 L19.1144045,30.5552047 L34.7534628,30.5552047 L34.7534628,51.4619656 C34.7534628,54.8620627 31.9971395,57.6183861 28.5970423,57.6183861 L19.1144045,57.6183861 Z" id="Combined-Shape"></path>
                        </g>
                    </g>
                    <g id="Group-10" transform="translate(193.018903, 57.170396)" stroke="#76DFA3" stroke-linecap="square" stroke-width="2.88524589">
                        <path d="M0.619724004,26.9509491 L159.661238,26.9509491" id="Line-5"></path>
                        <path d="M0.620122048,1.76702777 L135.29319,1.76702777" id="Line-5-Copy"></path>
                        <path d="M0.620122048,51.2664594 L135.29319,51.2664594" id="Line-5-Copy-2"></path>
                    </g>
                </g>
                <g id="Group-17">
                    <g id="Group-15" fill="#A1A1A1">
                        <path d="M104.963439,188.395659 C104.963439,140.846572 85.3719055,125.782172 76.6921037,99.8123453 C67.8865076,99.036335 46.9866472,97.6403893 28.2913558,99.7562926 C19.6212304,125.76002 0,140.810322 0,188.395659 C0,253.881257 29.143887,277.074296 29.143887,278.27154 L52.4832211,278.27154 L75.8228889,278.27154 C75.8228889,277.071276 104.963439,253.881257 104.963439,188.395659" id="Fill-4"></path>
                        <path d="M72.9135341,87.1292631 C72.3124566,82.7763984 72.0301423,78.0660144 72.1414775,72.8745368 C66.0889518,71.759659 51.9480568,70.0418061 32.0661096,73.0827512 C32.1648533,78.3026678 31.8659713,83.0384438 31.2486575,87.410945 C37.3147687,86.6786399 54.488885,85.0373015 72.9135341,87.1292631" id="Fill-8"></path>
                        <path d="M31.2943761,59.3432104 C37.6419581,58.0481827 57.3134711,54.7143321 73.6980216,59.1483032 C74.8160881,50.8433146 76.8305384,41.4408848 79.9763695,30.6101402 C80.0292937,30.4403499 80.9260103,27.5298029 80.9260103,24.3687566 C80.9260103,10.9395845 68.2015548,0.0502338111 52.4800553,0 C36.7618843,0.0502338111 24.0374288,10.9395845 24.0374288,24.3687566 C24.0374288,27.5324821 24.9341454,30.4403499 24.9870697,30.6101402 C28.155535,41.5249427 30.179971,50.991002 31.2943761,59.3432104" id="Fill-12"></path>
                    </g>
                    <path d="M52.8823434,214.918654 C36.0667033,214.918654 22.4349336,201.275185 22.4349336,184.445113 C22.4349336,167.615042 36.0667033,153.971573 52.8823434,153.971573 C69.6979835,153.971573 83.3297532,167.615042 83.3297532,184.445113 C83.3297532,201.275185 69.6979835,214.918654 52.8823434,214.918654 Z M69.7085436,199.920419 L69.7085436,168.972827 C69.7085436,167.756313 68.239207,167.146919 67.3797065,168.00708 L52.8823434,182.515584 L38.3849803,168.00708 C37.5254798,167.146919 36.0561432,167.756313 36.0561432,168.972827 L36.0561432,199.920419 C36.0561432,200.671353 36.6705269,201.285754 37.4204297,201.285754 L68.3442571,201.285754 C69.0964337,201.285754 69.7085436,200.668623 69.7085436,199.920419 Z M66.9799706,172.268745 L66.9799706,196.624045 L54.8118993,184.446623 L66.9799706,172.268745 Z M65.0504147,198.555084 L40.7142721,198.555084 L52.8823434,186.377207 L65.0504147,198.555084 Z M38.7847162,196.624045 L38.7847162,172.268745 L50.9527875,184.446623 L38.7847162,196.624045 Z" id="Combined-Shape" fill="#FFFFFF"></path>
                </g>
                <g id="Group-13" transform="translate(122.590887, 0.000000)">
                    <g id="Group-15-Copy" fill="#A1A1A1">
                        <path d="M104.963439,188.395659 C104.963439,140.846572 85.3719055,125.782172 76.6921037,99.8123453 C67.8865076,99.036335 46.9866472,97.6403893 28.2913558,99.7562926 C19.6212304,125.76002 0,140.810322 0,188.395659 C0,253.881257 29.143887,277.074296 29.143887,278.27154 L52.4832211,278.27154 L75.8228889,278.27154 C75.8228889,277.071276 104.963439,253.881257 104.963439,188.395659" id="Fill-4"></path>
                        <path d="M72.9135341,87.1292631 C72.3124566,82.7763984 72.0301423,78.0660144 72.1414775,72.8745368 C66.0889518,71.759659 51.9480568,70.0418061 32.0661096,73.0827512 C32.1648533,78.3026678 31.8659713,83.0384438 31.2486575,87.410945 C37.3147687,86.6786399 54.488885,85.0373015 72.9135341,87.1292631" id="Fill-8"></path>
                        <path d="M31.2943761,59.3432104 C37.6419581,58.0481827 57.3134711,54.7143321 73.6980216,59.1483032 C74.8160881,50.8433146 76.8305384,41.4408848 79.9763695,30.6101402 C80.0292937,30.4403499 80.9260103,27.5298029 80.9260103,24.3687566 C80.9260103,10.9395845 68.2015548,0.0502338111 52.4800553,0 C36.7618843,0.0502338111 24.0374288,10.9395845 24.0374288,24.3687566 C24.0374288,27.5324821 24.9341454,30.4403499 24.9870697,30.6101402 C28.155535,41.5249427 30.179971,50.991002 31.2943761,59.3432104" id="Fill-12"></path>
                    </g>
                    <g id="Group-3" transform="translate(24.037429, 153.971573)">
                        <mask id="mask-4" fill="white">
                            <use xlink:href="#path-3"></use>
                        </mask>
                        <g id="Clip-2"></g>
                        <path d="M42.2620038,43.8458099 C38.7355717,43.8458099 37.0495989,41.7500351 37.0495989,38.8846944 C37.0495989,38.0668911 37.1513612,37.1968192 37.4069275,36.3271801 L39.0935829,30.2915874 C39.2980177,29.6263536 39.3491264,29.0131605 39.3491264,28.4502545 C39.3491264,26.5072542 38.1738083,25.3302442 36.2829229,25.3302442 C33.8807229,25.3302442 32.2965124,27.0559486 31.4787277,30.3805692 L28.2076343,43.511519 L22.4843244,43.511519 L23.5116639,39.3851286 C21.8292182,42.1512616 19.4925766,43.8642804 16.6103735,43.8642804 C13.1350501,43.8642804 11.4997309,41.860562 11.4997309,38.8422191 C11.4997309,38.0762288 11.6021759,37.1371944 11.8063831,36.267578 L11.8066107,36.267578 L14.4126084,25.6109456 L10.3754988,25.6109456 L11.6021759,21.0817573 L21.3123286,21.0817573 L17.4790167,36.3000551 C17.2234732,37.2726598 17.1212558,38.079349 17.1212558,38.640934 C17.1212558,39.6141992 17.5999163,39.8986585 18.3483652,40.0676942 C18.8041338,40.1697944 22.4358781,40.0983949 24.4129838,35.6995249 L26.9307587,25.6109456 L22.8421081,25.6109456 L24.0687624,21.0817573 L32.8073947,21.0817573 L31.6833901,26.2239109 C33.2162643,23.3590257 36.2829229,20.6369167 39.2980177,20.6369167 C42.5175473,20.6369167 45.1753136,22.9326556 45.1753136,27.3315256 C45.1753136,28.4564721 45.0217599,29.6808541 44.6130951,31.0615861 L42.9773436,36.9416941 C42.8244499,37.5568914 42.7217774,38.0677793 42.7217774,38.5281752 C42.7217774,39.5505887 43.1306697,40.0617044 43.897323,40.0617044 C44.663999,40.0617044 45.6350871,39.4978875 46.7595241,36.3794486 L49.0079656,37.2481995 C47.6790939,41.9030373 45.2773262,43.8458099 42.2620038,43.8458099 M19.0121184,11.0600908 C20.9032314,11.0600908 22.4874419,12.5433558 22.4874419,14.4863561 C22.4874419,16.4306774 20.9032314,17.9141473 19.0121184,17.9141473 C17.1210282,17.9141473 15.5372501,16.4304496 15.5372501,14.4863561 C15.5372501,12.5433558 17.1210282,11.0600908 19.0121184,11.0600908 M51.7315178,0 L5.15708645,0 C2.30887997,0 0,2.3108615 0,5.16151237 L0,51.7758922 C0,54.626543 2.30887997,56.9374045 5.15708645,56.9374045 L51.7315178,56.9374045 C54.5797243,56.9374045 56.8885815,54.626543 56.8885815,51.7758922 L56.8885815,5.16151237 C56.8885815,2.3108615 54.5797243,0 51.7315178,0" id="Fill-1" fill="#FFFFFF" mask="url(#mask-4)"></path>
                    </g>
                </g>
                <g id="Group-18" transform="translate(247.585517, 0.000000)">
                    <g id="Group-15-Copy-2" fill="#A1A1A1">
                        <path d="M104.963439,188.395659 C104.963439,140.846572 85.3719055,125.782172 76.6921037,99.8123453 C67.8865076,99.036335 46.9866472,97.6403893 28.2913558,99.7562926 C19.6212304,125.76002 0,140.810322 0,188.395659 C0,253.881257 29.143887,277.074296 29.143887,278.27154 L52.4832211,278.27154 L75.8228889,278.27154 C75.8228889,277.071276 104.963439,253.881257 104.963439,188.395659" id="Fill-4"></path>
                        <path d="M72.9135341,87.1292631 C72.3124566,82.7763984 72.0301423,78.0660144 72.1414775,72.8745368 C66.0889518,71.759659 51.9480568,70.0418061 32.0661096,73.0827512 C32.1648533,78.3026678 31.8659713,83.0384438 31.2486575,87.410945 C37.3147687,86.6786399 54.488885,85.0373015 72.9135341,87.1292631" id="Fill-8"></path>
                        <path d="M31.2943761,59.3432104 C37.6419581,58.0481827 57.3134711,54.7143321 73.6980216,59.1483032 C74.8160881,50.8433146 76.8305384,41.4408848 79.9763695,30.6101402 C80.0292937,30.4403499 80.9260103,27.5298029 80.9260103,24.3687566 C80.9260103,10.9395845 68.2015548,0.0502338111 52.4800553,0 C36.7618843,0.0502338111 24.0374288,10.9395845 24.0374288,24.3687566 C24.0374288,27.5324821 24.9341454,30.4403499 24.9870697,30.6101402 C28.155535,41.5249427 30.179971,50.991002 31.2943761,59.3432104" id="Fill-12"></path>
                    </g>
                    <g id="Group-3" transform="translate(22.434934, 150.763832)">
                        <mask id="mask-6" fill="white">
                            <use xlink:href="#path-5"></use>
                        </mask>
                        <g id="Clip-2"></g>
                        <path d="M30.4484085,0 C13.6332613,0 0,13.6432809 0,30.4733183 C0,42.9513573 7.49719515,53.6708718 18.2253239,58.3840375 C18.1396569,56.2561272 18.2100103,53.7017464 18.7553053,51.386589 C19.3407705,48.9126157 22.6731285,34.7817813 22.6731285,34.7817813 C22.6731285,34.7817813 21.7003862,32.8362316 21.7003862,29.960221 C21.7003862,25.44452 24.3156714,22.0718489 27.5725714,22.0718489 C30.3418796,22.0718489 31.6797054,24.1537803 31.6797054,26.6466338 C31.6797054,29.4331301 29.9042233,33.600991 28.9909597,37.4612156 C28.2281682,40.693729 30.6104213,43.3302942 33.7967459,43.3302942 C39.5657311,43.3302942 43.4509298,35.9148157 43.4509298,27.1286344 C43.4509298,20.4499282 38.9562969,15.450894 30.7815334,15.450894 C21.5454754,15.450894 15.7915818,22.3443902 15.7915818,30.0444045 C15.7915818,32.6991835 16.5736816,34.5716557 17.7987643,36.0212112 C18.3622579,36.6871272 18.4403791,36.9552261 18.2364206,37.7197634 C18.0903872,38.2803944 17.7550431,39.6302181 17.6161116,40.1653053 C17.4134847,40.9369504 16.7887369,41.2128236 16.0916382,40.9278435 C11.8375831,39.189754 9.85614507,34.5272317 9.85614507,29.2858645 C9.85614507,20.6294012 17.1507133,10.2497305 31.6171196,10.2497305 C43.2418668,10.2497305 50.8928631,18.6687474 50.8928631,27.7061465 C50.8928631,39.6602043 44.25256,48.5909858 34.4641052,48.5909858 C31.177022,48.5909858 28.0850199,46.8124705 27.0257229,44.7927327 C27.0257229,44.7927327 25.2580085,51.8137259 24.8836037,53.1695468 C24.238216,55.5191328 22.9745166,57.8671641 21.8191216,59.6974334 C24.5578028,60.5066168 27.4502851,60.9470809 30.4484085,60.9470809 C47.2622241,60.9470809 60.8948197,47.3035779 60.8948197,30.4733183 C60.8948197,13.6432809 47.2622241,0 30.4484085,0" id="Fill-1" fill="#FFFFFF" mask="url(#mask-6)"></path>
                    </g>
                </g>
            </g>
        </g>
    </g>
</svg>