<?xml version="1.0" encoding="UTF-8"?>
<svg width="1146px" height="682px" viewBox="0 0 1146 682" version="1.1" xmlns="http://www.w3.org/2000/svg" xmlns:xlink="http://www.w3.org/1999/xlink">
    <!-- Generator: Sketch 54.1 (76490) - https://sketchapp.com -->
    <title>Group 31</title>
    <desc>Created with Sketch.</desc>
    <g id="Final-Hi-Fi" stroke="none" stroke-width="1" fill="none" fill-rule="evenodd">
        <g id="Desktop:-Canvas-Hi-Fi" transform="translate(-147.000000, -5807.000000)">
            <g id="Group-31" transform="translate(147.000000, 5807.000000)">
                <g id="Group-25">
                    <g id="Group-24">
                        <rect id="Rectangle-Copy-38" fill="#76DFA3" x="738.930271" y="269.907202" width="94.0114848" height="94.0443213"></rect>
                        <rect id="Rectangle-Copy-41" fill="#76DFA3" x="738.930271" y="495.613573" width="94.0114848" height="94.0443213"></rect>
                        <rect id="Rectangle-Copy-39" fill="#76DFA3" x="894.989336" y="269.907202" width="94.0114848" height="94.0443213"></rect>
                        <rect id="Rectangle-Copy-42" fill="#76DFA3" x="894.989336" y="495.613573" width="94.0114848" height="94.0443213"></rect>
                        <rect id="Rectangle-Copy-40" fill="#76DFA3" x="1051.98852" y="269.907202" width="94.0114848" height="94.0443213"></rect>
                        <rect id="Rectangle-Copy-43" fill="#76DFA3" x="1051.98852" y="495.613573" width="94.0114848" height="94.0443213"></rect>
                        <rect id="Rectangle-Copy-37" fill="#76DFA3" x="294.255947" y="269.907202" width="94.0114848" height="94.0443213"></rect>
                        <polygon id="Polygon-Copy-2" fill="#76DFA3" points="85.5504512 231.34903 171.100902 317.399584 85.5504512 403.450139 0 317.399584"></polygon>
                        <rect id="Rectangle" fill="#76DFA3" x="294.255947" y="34.7963989" width="94.0114848" height="94.0443213"></rect>
                        <rect id="Rectangle-Copy-35" fill="#76DFA3" x="452.195242" y="34.7963989" width="94.0114848" height="94.0443213"></rect>
                        <rect id="Rectangle-Copy-36" fill="#76DFA3" x="610.134537" y="34.7963989" width="94.0114848" height="94.0443213"></rect>
                        <polygon id="Polygon-Copy-3" fill="#76DFA3" points="85.5504512 0 171.100902 86.050554 85.5504512 172.101108 0 86.050554"></polygon>
                        <text id="Edit-note?" font-family="SpaceGrotesk-Medium, Space Grotesk" font-size="17.86" font-weight="400" line-spacing="20.6799999" fill="#FFFFFF">
                            <tspan x="56.7901538" y="79.8892521">Edit </tspan>
                            <tspan x="48.4673939" y="100.569252">note?</tspan>
                        </text>
                        <text id="Select-note" font-family="SpaceGrotesk-Bold, Space Grotesk" font-size="17.86" font-weight="bold" line-spacing="20.6799999" fill="#FFFFFF">
                            <tspan x="303.27347" y="81.7701385">Select</tspan>
                            <tspan x="310.14957" y="102.450138">note</tspan>
                        </text>
                        <text id="Select-list" font-family="SpaceGrotesk-Bold, Space Grotesk" font-size="17.86" font-weight="bold" line-spacing="20.6799999" fill="#FFFFFF">
                            <tspan x="303.27347" y="313.119169">Select</tspan>
                            <tspan x="316.48987" y="333.799169">list</tspan>
                        </text>
                        <text id="Select-title" font-family="SpaceGrotesk-Bold, Space Grotesk" font-size="17.86" font-weight="bold" line-spacing="20.6799999" fill="#FFFFFF">
                            <tspan x="747.007678" y="313.119169">Select</tspan>
                            <tspan x="756.294878" y="333.799169">title</tspan>
                        </text>
                        <text id="Select-item" font-family="SpaceGrotesk-Bold, Space Grotesk" font-size="17.86" font-weight="bold" line-spacing="20.6799999" fill="#FFFFFF">
                            <tspan x="747.007678" y="538.82554">Select</tspan>
                            <tspan x="754.794638" y="559.50554">item</tspan>
                        </text>
                        <text id="Edit-note" font-family="SpaceGrotesk-Medium, Space Grotesk" font-size="17.86" font-weight="400" line-spacing="20.6799999" fill="#FFFFFF">
                            <tspan x="470.910744" y="81.7701385">Edit</tspan>
                            <tspan x="467.981704" y="102.450138">note</tspan>
                        </text>
                        <text id="YES" font-family="SpaceGrotesk-Medium, Space Grotesk" font-size="15.04" font-weight="400" line-spacing="20.6799999" fill="#76DFA3">
                            <tspan x="218.830288" y="72.367036">YES</tspan>
                        </text>
                        <text id="YES-Copy" font-family="SpaceGrotesk-Medium, Space Grotesk" font-size="15.04" font-weight="400" line-spacing="20.6799999" fill="#76DFA3">
                            <tspan x="218.830288" y="304.65651">YES</tspan>
                        </text>
                        <g id="Group-22" transform="translate(657.140279, 287.775623)" fill="#76DFA3">
                            <text id="YES-Copy-2" font-family="SpaceGrotesk-Medium, Space Grotesk" font-size="15.04" font-weight="400" line-spacing="20.6799999">
                                <tspan x="16.7055952" y="15">YES</tspan>
                            </text>
                            <path id="Line-Copy-20" d="M62.0788005,29.1541828 L52.5241173,23.9946539 L53.4173973,22.3404318 L67.7761955,30.0941828 L53.4173973,37.8479339 L52.5241173,36.1937117 L62.0788005,31.0341828 L8.93120591,31.0341828 L8.93120591,29.1541828 L62.0788005,29.1541828 Z" fill-rule="nonzero"></path>
                        </g>
                        <g id="Group-22-Copy-2" transform="translate(658.080394, 516.303324)" fill="#76DFA3">
                            <text id="YES-Copy-2" font-family="SpaceGrotesk-Medium, Space Grotesk" font-size="15.04" font-weight="400" line-spacing="20.6799999">
                                <tspan x="16.7055952" y="15">YES</tspan>
                            </text>
                            <path id="Line-Copy-20" d="M61.1386856,27.2732964 L51.5840025,22.1137675 L52.4772824,20.4595454 L66.8360807,28.2132964 L52.4772824,35.9670474 L51.5840025,34.3128253 L61.1386856,29.1532964 L7.99109106,29.1532964 L7.99109106,27.2732964 L61.1386856,27.2732964 Z" fill-rule="nonzero"></path>
                        </g>
                        <text id="NO" font-family="SpaceGrotesk-Medium, Space Grotesk" font-size="15.04" font-weight="400" line-spacing="20.6799999" fill="#76DFA3">
                            <tspan x="103.052822" y="199.32687">NO</tspan>
                        </text>
                        <text id="NO-Copy" font-family="SpaceGrotesk-Medium, Space Grotesk" font-size="15.04" font-weight="400" line-spacing="20.6799999" fill="#76DFA3">
                            <tspan x="579.220992" y="428.795014">NO</tspan>
                        </text>
                        <text id="NO-Copy-2" font-family="SpaceGrotesk-Medium, Space Grotesk" font-size="15.04" font-weight="400" line-spacing="20.6799999" fill="#76DFA3">
                            <tspan x="579.220992" y="659.203601">NO</tspan>
                        </text>
                        <text id="Edit-title" font-family="SpaceGrotesk-Medium, Space Grotesk" font-size="17.86" font-weight="400" line-spacing="20.6799999" fill="#FFFFFF">
                            <tspan x="913.704838" y="313.119169">Edit</tspan>
                            <tspan x="913.338708" y="333.799169">title</tspan>
                        </text>
                        <text id="Edit-item" font-family="SpaceGrotesk-Medium, Space Grotesk" font-size="17.86" font-weight="400" line-spacing="20.6799999" fill="#FFFFFF">
                            <tspan x="913.704838" y="538.82554">Edit</tspan>
                            <tspan x="911.767028" y="559.50554">item</tspan>
                        </text>
                        <text id="Save-new-edit" font-family="SpaceGrotesk-Medium, Space Grotesk" font-size="17.86" font-weight="400" line-spacing="20.6799999" fill="#FFFFFF">
                            <tspan x="627.919096" y="81.9501385">Save</tspan>
                            <tspan x="612.014766" y="102.630138">new edit</tspan>
                        </text>
                        <text id="Save-new-edit-Copy" font-family="SpaceGrotesk-Medium, Space Grotesk" font-size="17.86" font-weight="400" line-spacing="20.6799999" fill="#FFFFFF">
                            <tspan x="1069.77307" y="313.299169">Save</tspan>
                            <tspan x="1053.86874" y="333.979169">new edit</tspan>
                        </text>
                        <text id="Save-new-edit-Copy-2" font-family="SpaceGrotesk-Medium, Space Grotesk" font-size="17.86" font-weight="400" line-spacing="20.6799999" fill="#FFFFFF">
                            <tspan x="1069.77307" y="539.00554">Save</tspan>
                            <tspan x="1053.86874" y="559.68554">new edit</tspan>
                        </text>
                        <g id="Group-22-Copy" transform="translate(14.101723, 286.835180)" fill="#FFFFFF" font-family="SpaceGrotesk-Medium, Space Grotesk" font-size="17.86" font-weight="400" line-spacing="20.6799999">
                            <text id="Edit-to-do-list?">
                                <tspan x="42.6884311" y="17.82">Edit </tspan>
                                <tspan x="35.2408111" y="38.4999999">to-do </tspan>
                                <tspan x="41.0453111" y="59.1799999">list?</tspan>
                            </text>
                        </g>
                        <polygon id="Polygon" fill="#76DFA3" points="563.598852 231.34903 649.149303 317.399584 563.598852 403.450139 478.0484 317.399584"></polygon>
                        <polygon id="Polygon-Copy" fill="#76DFA3" points="564.068909 458.936288 649.61936 544.986842 564.068909 631.037396 478.518458 544.986842"></polygon>
                        <text id="Edit-list-title?" font-family="SpaceGrotesk-Medium, Space Grotesk" font-size="17.86" font-weight="400" line-spacing="20.6799999" fill="#FFFFFF">
                            <tspan x="536.248726" y="312.178726">Edit </tspan>
                            <tspan x="515.290016" y="332.858726">list title?</tspan>
                        </text>
                        <path id="Line-Copy-9" d="M269.844182,84.6403324 L260.289499,79.4808035 L261.182779,77.8265814 L275.541577,85.5803324 L261.182779,93.3340834 L260.289499,91.6798613 L269.844182,86.5203324 L201.65475,86.5203324 L201.65475,84.6403324 L269.844182,84.6403324 Z" fill="#76DFA3" fill-rule="nonzero"></path>
                        <path id="Line-Copy-19" d="M269.844182,316.929806 L260.289499,311.770277 L261.182779,310.116055 L275.541577,317.869806 L261.182779,325.623557 L260.289499,323.969335 L269.844182,318.809806 L201.65475,318.809806 L201.65475,316.929806 L269.844182,316.929806 Z" fill="#76DFA3" fill-rule="nonzero"></path>
                        <path id="Line-Copy-10" d="M99.2689041,200.074226 L89.7142209,194.914698 L90.6075009,193.260475 L104.966299,201.014226 L90.6075009,208.767977 L89.7142209,207.113755 L99.2689041,201.954226 L66.9828155,201.954226 L66.9828155,200.074226 L99.2689041,200.074226 Z" fill="#76DFA3" fill-rule="nonzero"></path>
                        <path id="Line-Copy-18" d="M577.317304,430.482814 L567.762621,425.323285 L568.655901,423.669063 L583.014699,431.422814 L568.655901,439.176565 L567.762621,437.522343 L577.317304,432.362814 L545.031216,432.362814 L545.031216,430.482814 L577.317304,430.482814 Z" fill="#76DFA3" fill-rule="nonzero"></path>
                        <path id="Line-Copy-21" d="M577.317304,660.891401 L567.762621,655.731872 L568.655901,654.07765 L583.014699,661.831401 L568.655901,669.585152 L567.762621,667.93093 L577.317304,662.771401 L545.031216,662.771401 L545.031216,660.891401 L577.317304,660.891401 Z" fill="#76DFA3" fill-rule="nonzero"></path>
                        <path id="Line-Copy-17" d="M454.098065,316.017062 L444.495733,310.946761 L445.373565,309.28429 L459.803969,316.903948 L445.518022,324.791119 L444.609372,323.14529 L454.115577,317.89698 L405.668469,318.3483 L405.650956,316.468382 L454.098065,316.017062 Z" fill="#76DFA3" fill-rule="nonzero"></path>
                        <path id="Line-Copy-7" d="M432.484051,84.6403324 L422.929368,79.4808035 L423.822647,77.8265814 L438.181446,85.5803324 L423.822647,93.3340834 L422.929368,91.6798613 L432.484051,86.5203324 L403.952427,86.5203324 L403.952427,84.6403324 L432.484051,84.6403324 Z" fill="#76DFA3" fill-rule="nonzero"></path>
                        <path id="Line-Copy-13" d="M876.218259,315.989363 L866.663576,310.829834 L867.556856,309.175612 L881.915654,316.929363 L867.556856,324.683114 L866.663576,323.028892 L876.218259,317.869363 L847.686635,317.869363 L847.686635,315.989363 L876.218259,315.989363 Z" fill="#76DFA3" fill-rule="nonzero"></path>
                        <path id="Line-Copy-15" d="M876.218259,541.695734 L866.663576,536.536205 L867.556856,534.881983 L881.915654,542.635734 L867.556856,550.389485 L866.663576,548.735263 L876.218259,543.575734 L867.937327,543.575734 L848.626635,543.575734 L847.686635,543.575734 L847.686635,541.695734 L876.218259,541.695734 Z" fill="#76DFA3" fill-rule="nonzero"></path>
                        <path id="Line-Copy-8" d="M591.36346,84.6403324 L581.808777,79.4808035 L582.702057,77.8265814 L597.060855,85.5803324 L582.702057,93.3340834 L581.808777,91.6798613 L591.36346,86.5203324 L562.831836,86.5203324 L562.831836,84.6403324 L591.36346,84.6403324 Z" fill="#76DFA3" fill-rule="nonzero"></path>
                        <path id="Line-Copy-14" d="M1031.33721,315.989363 L1021.78253,310.829834 L1022.67581,309.175612 L1037.0346,316.929363 L1022.67581,324.683114 L1021.78253,323.028892 L1031.33721,317.869363 L1002.80558,317.869363 L1002.80558,315.989363 L1031.33721,315.989363 Z" fill="#76DFA3" fill-rule="nonzero"></path>
                        <path id="Line-Copy-16" d="M1031.33721,541.695734 L1021.78253,536.536205 L1022.67581,534.881983 L1037.0346,542.635734 L1022.67581,550.389485 L1021.78253,548.735263 L1031.33721,543.575734 L1023.05628,543.575734 L1003.74558,543.575734 L1002.80558,543.575734 L1002.80558,541.695734 L1031.33721,541.695734 Z" fill="#76DFA3" fill-rule="nonzero"></path>
                        <text id="Edit-list-item?" font-family="SpaceGrotesk-Medium, Space Grotesk" font-size="17.86" font-weight="400" line-spacing="20.6799999" fill="#FFFFFF">
                            <tspan x="536.248726" y="537.885097">Edit </tspan>
                            <tspan x="513.718336" y="558.565097">list item?</tspan>
                        </text>
                    </g>
                </g>
            </g>
        </g>
    </g>
</svg>