<?xml version="1.0" encoding="UTF-8"?>
<svg width="1149px" height="743px" viewBox="0 0 1149 743" version="1.1" xmlns="http://www.w3.org/2000/svg" xmlns:xlink="http://www.w3.org/1999/xlink">
    <!-- Generator: Sketch 55.1 (78136) - https://sketchapp.com -->
    <title>Group 61</title>
    <desc>Created with Sketch.</desc>
    <g id="Final-Hi-Fi" stroke="none" stroke-width="1" fill="none" fill-rule="evenodd">
        <g id="Desktop:-Canvas-Hi-Fi" transform="translate(-149.000000, -10327.000000)">
            <g id="Group-61" transform="translate(149.000000, 10327.000000)">
                <g id="Group-58" transform="translate(398.000000, 0.000000)">
                    <path d="M18.2432245,32.4158514 C17.744262,32.4158514 17.3232687,32.5717748 16.980232,32.8836264 C16.6371953,33.1954779 16.4656795,33.6008788 16.4656795,34.0998413 L16.4656795,64.4116605 C16.4656795,64.910623 16.6371953,65.3160239 16.980232,65.6278755 C17.3232687,65.939727 17.744262,66.0956504 18.2432245,66.0956504 L48.2743787,66.0956504 C48.7733411,66.0956504 49.1943344,66.2671662 49.5373711,66.6102029 C49.8804078,66.9532396 50.0519236,67.3742329 50.0519236,67.8731954 L50.0519236,80.222455 C50.0519236,80.7214175 49.8804078,81.1424108 49.5373711,81.4854475 C49.1943344,81.8284842 48.7733411,82 48.2743787,82 L10.9459347,82 C9.44904725,82 8.03014398,81.7193378 6.68918231,81.158005 C5.34822065,80.5966722 4.17879487,79.8170551 3.18086991,78.8191301 C2.18294495,77.8212051 1.40332777,76.6517794 0.841994977,75.3108177 C0.280662186,73.969856 1.44950718e-12,72.5509527 1.44950718e-12,71.0540653 L1.44950718e-12,27.4574365 C1.44950718e-12,25.9605491 0.280662186,24.5416458 0.841994977,23.2006841 C1.40332777,21.8597225 2.18294495,20.705889 3.18086991,19.7391492 C4.17879487,18.7724094 5.34822065,17.9927922 6.68918231,17.4002743 C8.03014398,16.8077563 9.44904725,16.5115018 10.9459347,16.5115018 L48.2743787,16.5115018 C48.7733411,16.5115018 49.1943344,16.6830176 49.5373711,17.0260543 C49.8804078,17.369091 50.0519236,17.7900843 50.0519236,18.2890468 L50.0519236,30.6383064 C50.0519236,31.1372689 49.8804078,31.5582622 49.5373711,31.9012989 C49.1943344,32.2443356 48.7733411,32.4158514 48.2743787,32.4158514 L18.2432245,32.4158514 Z M108.898017,16.5115018 C110.394904,16.5115018 111.813808,16.8077563 113.154769,17.4002743 C114.495731,17.9927922 115.649564,18.7724094 116.616304,19.7391492 C117.583044,20.705889 118.362661,21.8597225 118.955179,23.2006841 C119.547697,24.5416458 119.843952,25.9605491 119.843952,27.4574365 L119.843952,80.222455 C119.843952,80.7214175 119.672436,81.1424108 119.329399,81.4854475 C118.986362,81.8284842 118.565369,82 118.066407,82 L105.062262,82 C104.5633,82 104.142306,81.8284842 103.79927,81.4854475 C103.456233,81.1424108 103.284717,80.7214175 103.284717,80.222455 L103.284717,63.4761105 C103.284717,62.977148 103.128794,62.5561548 102.816942,62.213118 C102.505091,61.8700813 102.09969,61.6985656 101.600727,61.6985656 L83.0768377,61.6985656 C82.5778752,61.6985656 82.1568819,61.8700813 81.8138452,62.213118 C81.4708085,62.5561548 81.2992927,62.977148 81.2992927,63.4761105 L81.2992927,80.222455 C81.2992927,81.4074909 80.7067837,82 79.5217478,82 L66.6111582,82 C65.4261223,82 64.8336132,81.4074909 64.8336132,80.222455 L64.8336132,27.4574365 C64.8336132,25.9605491 65.1142754,24.5416458 65.6756082,23.2006841 C66.236941,21.8597225 67.0165582,20.705889 68.0144831,19.7391492 C69.0124081,18.7724094 70.1818338,17.9927922 71.5227955,17.4002743 C72.8637572,16.8077563 74.2826605,16.5115018 75.7795479,16.5115018 L108.898017,16.5115018 Z M103.284717,47.665316 L103.284717,31.1996364 L81.2992927,31.1996364 L81.2992927,47.665316 L103.284717,47.665316 Z M187.858435,16.5115018 C188.357397,16.5115018 188.778391,16.6830176 189.121427,17.0260543 C189.464464,17.369091 189.63598,17.7900843 189.63598,18.2890468 L189.63598,80.222455 C189.63598,80.7214175 189.464464,81.1424108 189.121427,81.4854475 C188.778391,81.8284842 188.357397,82 187.858435,82 L174.386515,82 C173.887553,82 173.388598,81.8596689 172.889635,81.5790025 C172.390673,81.2983361 172.016456,80.9397122 171.766975,80.50312 L151.091321,42.3326811 L151.091321,80.222455 C151.091321,81.4074909 150.498812,82 149.313776,82 L136.403186,82 C135.21815,82 134.625641,81.4074909 134.625641,80.222455 L134.625641,18.2890468 C134.625641,17.1040109 135.21815,16.5115018 136.403186,16.5115018 L149.687996,16.5115018 C150.186958,16.5115018 150.685913,16.6518329 151.184876,16.9324993 C151.683838,17.2131657 152.058055,17.5717896 152.307536,18.0083818 L173.076745,56.2723757 L173.076745,18.2890468 C173.076745,17.7900843 173.248261,17.369091 173.591298,17.0260543 C173.934334,16.6830176 174.355328,16.5115018 174.85429,16.5115018 L187.858435,16.5115018 Z M260.644223,16.5115018 C261.143185,16.5115018 261.501809,16.6674253 261.720105,16.9792768 C261.938401,17.2911284 261.985178,17.6965293 261.860438,18.1954918 L242.400998,80.31601 C242.276258,80.8149725 241.995595,81.2203735 241.559003,81.532225 C241.122411,81.8440766 240.654641,82 240.155678,82 L222.754449,82 C222.255486,82 221.787716,81.8440766 221.351124,81.532225 C220.914532,81.2203735 220.63387,80.8149725 220.509129,80.31601 L201.143244,18.1954918 C201.018504,17.6965293 201.065281,17.2911284 201.283577,16.9792768 C201.501873,16.6674253 201.860497,16.5115018 202.359459,16.5115018 L216.392709,16.5115018 C216.891671,16.5115018 217.359442,16.6674253 217.796034,16.9792768 C218.232626,17.2911284 218.513288,17.6965293 218.638029,18.1954918 L231.455064,64.3181055 L244.365653,18.1954918 C244.490394,17.6965293 244.755464,17.2911284 245.160871,16.9792768 C245.566278,16.6674253 246.018456,16.5115018 246.517418,16.5115018 L260.644223,16.5115018 Z M317.432106,16.5115018 C318.928994,16.5115018 320.347897,16.8077563 321.688859,17.4002743 C323.02982,17.9927922 324.183654,18.7724094 325.150393,19.7391492 C326.117133,20.705889 326.89675,21.8597225 327.489268,23.2006841 C328.081786,24.5416458 328.378041,25.9605491 328.378041,27.4574365 L328.378041,80.222455 C328.378041,80.7214175 328.206525,81.1424108 327.863488,81.4854475 C327.520452,81.8284842 327.099458,82 326.600496,82 L313.596351,82 C313.097389,82 312.676396,81.8284842 312.333359,81.4854475 C311.990322,81.1424108 311.818806,80.7214175 311.818806,80.222455 L311.818806,63.4761105 C311.818806,62.977148 311.662883,62.5561548 311.351031,62.213118 C311.03918,61.8700813 310.633779,61.6985656 310.134816,61.6985656 L291.610927,61.6985656 C291.111964,61.6985656 290.690971,61.8700813 290.347934,62.213118 C290.004898,62.5561548 289.833382,62.977148 289.833382,63.4761105 L289.833382,80.222455 C289.833382,81.4074909 289.240873,82 288.055837,82 L275.145247,82 C273.960211,82 273.367702,81.4074909 273.367702,80.222455 L273.367702,27.4574365 C273.367702,25.9605491 273.648365,24.5416458 274.209697,23.2006841 C274.77103,21.8597225 275.550647,20.705889 276.548572,19.7391492 C277.546497,18.7724094 278.715923,17.9927922 280.056885,17.4002743 C281.397846,16.8077563 282.81675,16.5115018 284.313637,16.5115018 L317.432106,16.5115018 Z M311.818806,47.665316 L311.818806,31.1996364 L289.833382,31.1996364 L289.833382,47.665316 L311.818806,47.665316 Z M381.985054,42.6133461 C383.481942,42.6133461 384.900845,42.8940083 386.241807,43.4553411 C387.582768,44.0166739 388.736602,44.796291 389.703342,45.794216 C390.670081,46.792141 391.449699,47.9459744 392.042217,49.2557509 C392.634735,50.5655274 392.930989,51.9688383 392.930989,53.4657258 L392.930989,71.0540653 C392.930989,72.5509527 392.634735,73.969856 392.042217,75.3108177 C391.449699,76.6517794 390.670081,77.8212051 389.703342,78.8191301 C388.736602,79.8170551 387.582768,80.5966722 386.241807,81.158005 C384.900845,81.7193378 383.481942,82 381.985054,82 L344.65661,82 C343.471575,82 342.879065,81.4074909 342.879065,80.222455 L342.879065,68.9023004 C342.879065,68.4033379 343.050581,67.9823446 343.393618,67.6393079 C343.736655,67.2962712 344.157648,67.1247554 344.65661,67.1247554 L376.46531,67.1247554 C376.964272,67.1247554 377.385265,66.968832 377.728302,66.6569804 C378.071339,66.3451289 378.242855,65.9397279 378.242855,65.4407655 L378.242855,57.6757007 C378.242855,57.1767382 378.071339,56.7557449 377.728302,56.4127082 C377.385265,56.0696715 376.964272,55.8981557 376.46531,55.8981557 L353.825,55.8981557 C352.328113,55.8981557 350.909209,55.6174935 349.568248,55.0561607 C348.227286,54.494828 347.05786,53.7152108 346.059935,52.7172858 C345.06201,51.7193609 344.282393,50.5655274 343.72106,49.2557509 C343.159728,47.9459744 342.879065,46.5426635 342.879065,45.045776 L342.879065,27.4574365 C342.879065,25.9605491 343.159728,24.5416458 343.72106,23.2006841 C344.282393,21.8597225 345.06201,20.705889 346.059935,19.7391492 C347.05786,18.7724094 348.227286,17.9927922 349.568248,17.4002743 C350.909209,16.8077563 352.328113,16.5115018 353.825,16.5115018 L389.095234,16.5115018 C390.28027,16.5115018 390.872779,17.1040109 390.872779,18.2890468 L390.872779,29.7963114 C390.872779,30.2952739 390.701263,30.7006749 390.358227,31.0125264 C390.01519,31.324378 389.594197,31.4803014 389.095234,31.4803014 L359.25119,31.4803014 C358.752228,31.4803014 358.346827,31.6518172 358.034975,31.9948539 C357.723124,32.3378906 357.5672,32.7588839 357.5672,33.2578464 L357.5672,40.8358011 C357.5672,41.3347636 357.723124,41.7557569 358.034975,42.0987936 C358.346827,42.4418303 358.752228,42.6133461 359.25119,42.6133461 L381.985054,42.6133461 Z" id="canvas" fill="#E6E5E5" fill-rule="nonzero"></path>
                    <path d="M502.275862,0 L505.724138,0 C519.517241,0 524,2.93909348 524,17.2818697 L524,32.2124646 L512.505747,32.2124646 L512.505747,16.5764873 C512.505747,10.4631728 509.862069,9.99291785 505.724138,9.99291785 L502.275862,9.99291785 C498.252874,9.99291785 495.494253,10.4631728 495.494253,16.5764873 L495.494253,66.4235127 C495.494253,72.5368272 498.252874,73.0070822 502.275862,73.0070822 L505.724138,73.0070822 C509.862069,73.0070822 512.505747,72.5368272 512.505747,66.4235127 L512.505747,48.4362606 L524,48.4362606 L524,65.7181303 C524,79.9433428 519.517241,83 505.724138,83 L502.275862,83 C488.597701,83 484,79.9433428 484,65.7181303 L484,17.2818697 C484,2.93909348 488.597701,0 502.275862,0 Z M550.884615,16 L552.961538,16 C566.115385,16 569,20.1068301 569,31.0192644 L569,82.061296 C569,82.061296 556.653846,83 550.076923,83 L546.615385,83 C538.192308,83 533,79.4798599 533,69.7408056 L533,53.7828371 C533,44.0437828 538.192308,40.6409807 546.615385,40.6409807 L558.038462,40.6409807 L558.038462,30.9019264 C558.038462,25.5043783 555.846154,25.3870403 552.730769,25.3870403 L550.653846,25.3870403 C547.538462,25.3870403 545.346154,25.3870403 545.346154,30.5499124 L545.346154,36.0647986 L535.192308,36.0647986 L535.192308,31.0192644 C535.192308,20.1068301 537.730769,16 550.884615,16 Z M543,53.8 L543,67.8487805 C543,71.1268293 544.229508,73 547.42623,73 L558,73 L558,49 L547.42623,49 C544.352459,49 543,50.6390244 543,53.8 Z M602.211356,83 L602.211356,30.9806338 C602.211356,27.7957746 600.621451,25.790493 597.66877,25.790493 L587.788644,25.790493 L587.788644,83 L577,83 L577,16.3538732 C577,16.3538732 587.788644,16 596.078864,16 L599.599369,16 C607.88959,16 613,19.4207746 613,29.2112676 L613,83 L602.211356,83 Z M661,16 L648.146739,82 L630.853261,82 L618,16 L629.684783,16 L639.149457,68.2159292 L639.850543,68.2159292 L649.315217,16 L661,16 Z M682.884615,16 L684.961538,16 C698.115385,16 701,20.1068301 701,31.0192644 L701,82.061296 C701,82.061296 688.653846,83 682.076923,83 L678.615385,83 C670.192308,83 665,79.4798599 665,69.7408056 L665,53.7828371 C665,44.0437828 670.192308,40.6409807 678.615385,40.6409807 L690.038462,40.6409807 L690.038462,30.9019264 C690.038462,25.5043783 687.846154,25.3870403 684.730769,25.3870403 L682.653846,25.3870403 C679.538462,25.3870403 677.346154,25.3870403 677.346154,30.5499124 L677.346154,36.0647986 L667.192308,36.0647986 L667.192308,31.0192644 C667.192308,20.1068301 669.730769,16 682.884615,16 Z M675,53.8 L675,67.8487805 C675,71.1268293 676.229508,73 679.42623,73 L690,73 L690,49 L679.42623,49 C676.352459,49 675,50.6390244 675,53.8 Z M723.622074,16 L724.792642,16 C738.137124,16 740.829431,20.1140351 740.829431,31.045614 L740.829431,36.3350877 L730.294314,36.3350877 L730.294314,30.4578947 C730.294314,25.6385965 728.187291,25.4035088 724.792642,25.4035088 L723.622074,25.4035088 C720.227425,25.4035088 718.120401,25.6385965 718.120401,30.4578947 L718.120401,35.7473684 C718.120401,39.5087719 720.110368,39.9789474 724.207358,41.8596491 L732.050167,44.9157895 C737.785953,47.1491228 742,49.5 742,57.9631579 L742,67.4842105 C742,78.4157895 738.839465,83 725.377926,83 L723.622074,83 C710.160535,83 707,78.8859649 707,67.954386 L707,61.8421053 L718.120401,61.8421053 L718.120401,68.4245614 C718.120401,73.2438596 720.227425,73.5964912 723.622074,73.5964912 L725.377926,73.5964912 C728.772575,73.5964912 730.879599,72.7736842 730.879599,67.954386 L730.879599,59.8438596 C730.879599,55.0245614 727.953177,54.3192982 724.675585,52.9087719 L716.949833,49.7350877 C711.682274,47.6192982 707,45.9736842 707,36.8052632 L707,31.045614 C707,20.1140351 710.160535,16 723.622074,16 Z" id="Canvas-Copy-2" fill="#117C68"></path>
                    <text id="TYPEFACE:-OUTAGE" font-family="MarrSans-Regular, Marr Sans" font-size="13" font-weight="normal" line-spacing="22.9999995" letter-spacing="1.369333" fill="#000000">
                        <tspan x="0" y="105">TYPEFACE: OUTAGE</tspan>
                    </text>
                    <text id="TYPEFACE:-RBNo2.1-b" font-family="MarrSans-Regular, Marr Sans" font-size="13" font-weight="normal" line-spacing="22.9999995" letter-spacing="1.369333" fill="#000000">
                        <tspan x="487" y="106">TYPEFACE: RBNo2.1 b MEDIUM</tspan>
                    </text>
                </g>
                <g id="Group-59" transform="translate(0.000000, 202.000000)">
                    <path d="M201,90.45 L108.0375,90.45 L108.0375,0 L127.344001,0 C168.023086,-7.47262664e-15 201,32.9769138 201,73.6559986 L201,90.45 Z M201,110.55 L201,127.344001 C201,168.023086 168.023086,201 127.344001,201 L108.0375,201 L108.0375,110.55 L201,110.55 Z M87.9375,-2.84217094e-14 L87.9375,201 L73.6559986,201 C32.9769138,201 4.9817511e-15,168.023086 0,127.344001 L0,73.6559986 C-4.9817511e-15,32.9769138 32.9769138,7.47262664e-15 73.6559986,0 L87.9375,0 Z" id="Combined-Shape-Copy-8" fill="#D7D7D7"></path>
                    <path d="M457,92.46 L382.5375,92.46 L382.5375,0 L398.075201,0 C430.618469,1.12732604e-15 457,26.3815311 457,58.9247989 L457,92.46 Z M457,108.54 L457,142.075201 C457,174.618469 430.618469,201 398.075201,201 L382.5375,201 L382.5375,108.54 L457,108.54 Z M366.4375,0 L366.4375,201 L354.924799,201 C322.381531,201 296,174.618469 296,142.075201 L296,58.9247989 C296,26.3815311 322.381531,1.30835287e-14 354.924799,0 L366.4375,0 Z" id="Combined-Shape-Copy-9" fill="#D7D7D7"></path>
                    <path d="M700,93.13 L631.55,93.13 L631.55,0 L641.075201,0 C673.618469,-5.97810131e-15 700,26.3815311 700,58.9247989 L700,93.13 Z M700,107.87 L700,142.075201 C700,174.618469 673.618469,201 641.075201,201 L631.55,201 L631.55,107.87 L700,107.87 Z M616.75,-2.84217094e-14 L616.75,201 L610.924799,201 C578.381531,201 552,174.618469 552,142.075201 L552,58.9247989 C552,26.3815311 578.381531,5.97810131e-15 610.924799,0 L616.75,0 Z" id="Combined-Shape-Copy-10" fill="#D7D7D7"></path>
                    <path d="M929,93.8 L867.025,93.8 L867.025,0 L882.965001,0 C908.389429,-4.67039165e-15 929,20.6105712 929,46.0349991 L929,93.8 Z M929,107.2 L929,154.965001 C929,180.389429 908.389429,201 882.965001,201 L867.025,201 L867.025,107.2 L929,107.2 Z M853.625,0 L853.625,201 L841.034999,201 C815.610571,201 795,180.389429 795,154.965001 L795,46.0349991 C795,20.6105712 815.610571,4.67039165e-15 841.034999,0 L853.625,0 Z" id="Combined-Shape-Copy-12" fill="#D7D7D7"></path>
                    <path d="M1141,94.6375 L1086.8875,94.6375 L1086.8875,0 L1107.52,0 C1126.01049,-3.39664847e-15 1141,14.9895063 1141,33.4799994 L1141,94.6375 Z M1141,106.3625 L1141,167.520001 C1141,186.010494 1126.01049,201 1107.52,201 L1086.8875,201 L1086.8875,106.3625 L1141,106.3625 Z M1075.1875,-2.84217094e-14 L1075.1875,201 L1057.48,201 C1038.98951,201 1024,186.010494 1024,167.520001 L1024,33.4799994 C1024,14.9895063 1038.98951,3.39664847e-15 1057.48,0 L1075.1875,0 Z" id="Combined-Shape-Copy-14" fill="#117C68"></path>
                    <path id="Line-Copy-19" d="M264.530932,97.0004432 L254.976249,91.8409143 L255.869529,90.1866922 L270.228327,97.9404432 L255.869529,105.694194 L254.976249,104.039972 L264.530932,98.8804432 L228.530057,98.8804432 L228.530057,97.0004432 L264.530932,97.0004432 Z" fill="#D7D7D7" fill-rule="nonzero"></path>
                    <path id="Line-Copy-22" d="M524.530932,97.0004432 L514.976249,91.8409143 L515.869529,90.1866922 L530.228327,97.9404432 L515.869529,105.694194 L514.976249,104.039972 L524.530932,98.8804432 L488.530057,98.8804432 L488.530057,97.0004432 L524.530932,97.0004432 Z" fill="#D7D7D7" fill-rule="nonzero"></path>
                    <path id="Line-Copy-23" d="M763.530932,97.0004432 L753.976249,91.8409143 L754.869529,90.1866922 L769.228327,97.9404432 L754.869529,105.694194 L753.976249,104.039972 L763.530932,98.8804432 L727.530057,98.8804432 L727.530057,97.0004432 L763.530932,97.0004432 Z" fill="#D7D7D7" fill-rule="nonzero"></path>
                    <path id="Line-Copy-24" d="M991.530932,97.0004432 L981.976249,91.8409143 L982.869529,90.1866922 L997.228327,97.9404432 L982.869529,105.694194 L981.976249,104.039972 L991.530932,98.8804432 L955.530057,98.8804432 L955.530057,97.0004432 L991.530932,97.0004432 Z" fill="#D7D7D7" fill-rule="nonzero"></path>
                    <text id="PRIMARY-MARK-EVOLUTI" font-family="MarrSans-Regular, Marr Sans" font-size="13" font-weight="normal" line-spacing="22.9999995" letter-spacing="1.369333" fill="#000000">
                        <tspan x="0" y="225">PRIMARY MARK EVOLUTION</tspan>
                    </text>
                </g>
                <g id="Group-60" transform="translate(0.000000, 515.000000)">
                    <path id="Line-Copy-25" d="M245.530932,96.0004432 L235.976249,90.8409143 L236.869529,89.1866922 L251.228327,96.9404432 L236.869529,104.694194 L235.976249,103.039972 L245.530932,97.8804432 L209.530057,97.8804432 L209.530057,96.0004432 L245.530932,96.0004432 Z" fill="#D7D7D7" fill-rule="nonzero"></path>
                    <path id="Line-Copy-26" d="M492.530932,96.0004432 L482.976249,90.8409143 L483.869529,89.1866922 L498.228327,96.9404432 L483.869529,104.694194 L482.976249,103.039972 L492.530932,97.8804432 L456.530057,97.8804432 L456.530057,96.0004432 L492.530932,96.0004432 Z" fill="#D7D7D7" fill-rule="nonzero"></path>
                    <path id="Line-Copy-27" d="M735.530932,96.0004432 L725.976249,90.8409143 L726.869529,89.1866922 L741.228327,96.9404432 L726.869529,104.694194 L725.976249,103.039972 L735.530932,97.8804432 L699.530057,97.8804432 L699.530057,96.0004432 L735.530932,96.0004432 Z" fill="#D7D7D7" fill-rule="nonzero"></path>
                    <path id="Line-Copy-28" d="M979.530932,96.0004432 L969.976249,90.8409143 L970.869529,89.1866922 L985.228327,96.9404432 L970.869529,104.694194 L969.976249,103.039972 L979.530932,97.8804432 L943.530057,97.8804432 L943.530057,96.0004432 L979.530932,96.0004432 Z" fill="#D7D7D7" fill-rule="nonzero"></path>
                    <g id="Group-5">
                        <rect id="Rectangle-10" fill="#D7D7D7" x="0" y="0" width="145" height="194" rx="55.4759995"></rect>
                        <path d="M120.457536,92.9861769 L76.5759569,92.9861769 L76.5759569,24.7659574 L87.2315522,24.7659574 C105.581756,24.7659574 120.457536,39.6417371 120.457536,57.9919412 L120.457536,92.9861769 Z M120.457536,100.980802 L120.457536,135.975038 C120.457536,154.325242 105.581756,169.201021 87.2315522,169.201021 L76.5759569,169.201021 L76.5759569,100.980802 L120.457536,100.980802 Z M68.597488,24.7659574 L68.597488,169.201021 L57.9418928,169.201021 C39.5916887,169.201021 24.7159091,154.325242 24.7159091,135.975038 L24.7159091,57.9919412 C24.7159091,39.6417371 39.5916887,24.7659574 57.9418928,24.7659574 L68.597488,24.7659574 Z" id="Combined-Shape-Copy-14" fill="#FFFFFF"></path>
                    </g>
                    <g id="Group" transform="translate(287.000000, 1.000000)">
                        <rect id="Rectangle-10-Copy" fill="#D7D7D7" x="0" y="0" width="132" height="194" rx="55.3424512"></rect>
                        <path d="M109.584906,93.0231147 L68.8849057,93.0231147 L68.8849057,22.2893617 L79.6700672,22.2893617 C96.1915763,22.2893617 109.584906,35.6826911 109.584906,52.2042002 L109.584906,93.0231147 Z M109.584906,101.802417 L109.584906,142.621332 C109.584906,159.142841 96.1915763,172.53617 79.6700672,172.53617 L68.8849057,172.53617 L68.8849057,101.802417 L109.584906,101.802417 Z M60.0849057,22.2893617 L60.0849057,172.53617 L51.4997441,172.53617 C34.978235,172.53617 21.5849057,159.142841 21.5849057,142.621332 L21.5849057,52.2042002 C21.5849057,35.6826911 34.978235,22.2893617 51.4997441,22.2893617 L60.0849057,22.2893617 Z" id="Combined-Shape-Copy-12" fill="#FFFFFF"></path>
                    </g>
                    <g id="Group-3" transform="translate(532.500000, 0.000000)">
                        <rect id="Rectangle-10-Copy" fill="#D7D7D7" x="0" y="0" width="128" height="194" rx="59.1591719"></rect>
                        <path d="M110.545455,92.7530456 L67.1064935,92.7530456 L67.1064935,17.3361702 L78.5675238,17.3361702 C96.2284473,17.3361702 110.545455,31.6531775 110.545455,49.314101 L110.545455,92.7530456 Z M110.545455,102.072486 L110.545455,145.511431 C110.545455,163.172354 96.2284473,177.489362 78.5675238,177.489362 L67.1064935,177.489362 L67.1064935,102.072486 L110.545455,102.072486 Z M57.7142857,17.3361702 L57.7142857,177.489362 L48.6013074,177.489362 C30.9403839,177.489362 16.6233766,163.172354 16.6233766,145.511431 L16.6233766,49.314101 C16.6233766,31.6531775 30.9403839,17.3361702 48.6013074,17.3361702 L57.7142857,17.3361702 Z" id="Combined-Shape-Copy-12" fill="#FFFFFF"></path>
                    </g>
                    <g id="Group-32" transform="translate(774.250000, 0.000000)">
                        <rect id="Rectangle-10-Copy" fill="#D7D7D7" x="0" y="0" width="128" height="195" rx="45.5399996"></rect>
                        <path d="M110.545455,93.2252018 L67.1064935,93.2252018 L67.1064935,17.3516949 L78.5675238,17.3516949 C96.2284473,17.3516949 110.545455,31.6687022 110.545455,49.3296257 L110.545455,93.2252018 Z M110.545455,102.601069 L110.545455,146.496646 C110.545455,164.157569 96.2284473,178.474576 78.5675238,178.474576 L67.1064935,178.474576 L67.1064935,102.601069 L110.545455,102.601069 Z M57.7142857,17.3516949 L57.7142857,178.474576 L48.6013074,178.474576 C30.9403839,178.474576 16.6233766,164.157569 16.6233766,146.496646 L16.6233766,49.3296257 C16.6233766,31.6687022 30.9403839,17.3516949 48.6013074,17.3516949 L57.7142857,17.3516949 Z" id="Combined-Shape-Copy-12" fill="#FFFFFF"></path>
                    </g>
                    <path d="M1088.04167,91.7769231 L1136.33333,91.7769231 L1136.33333,102.969231 L1088.04167,102.969231 L1088.04167,182.807692 L1076.16667,182.807692 L1076.16667,11.1923077 L1088.04167,11.1923077 L1088.04167,91.7769231 Z M1048.99848,0 L1116.00152,0 C1134.22608,-3.3477966e-15 1149,14.7739216 1149,32.9984775 L1149,161.001523 C1149,179.226078 1134.22608,194 1116.00152,194 L1048.99848,194 C1030.77392,194 1016,179.226078 1016,161.001523 L1016,32.9984775 C1016,14.7739216 1030.77392,-3.75763075e-15 1048.99848,0 Z M1052.62386,11.1923077 C1038.95544,11.1923077 1027.875,22.2727489 1027.875,35.9411658 L1027.875,158.058834 C1027.875,171.727251 1038.95544,182.807692 1052.62386,182.807692 L1111.58448,182.807692 C1125.25289,182.807692 1136.33333,171.727251 1136.33333,158.058834 L1136.33333,35.9411658 C1136.33333,22.2727489 1125.25289,11.1923077 1111.58448,11.1923077 L1052.62386,11.1923077 Z" id="Combined-Shape-Copy-2" fill="#117C68"></path>
                    <text id="ALTERNATE-MARK-EVOLU" font-family="MarrSans-Regular, Marr Sans" font-size="13" font-weight="normal" line-spacing="22.9999995" letter-spacing="1.369333" fill="#000000">
                        <tspan x="0" y="219">ALTERNATE MARK EVOLUTION</tspan>
                    </text>
                </g>
            </g>
        </g>
    </g>
</svg>